<svg width="23" height="22" viewBox="0 0 23 22" fill="none" xmlns="http://www.w3.org/2000/svg">
<g clip-path="url(#clip0_776_4693)">
<path d="M11.1406 21.6562C17.0259 21.6562 21.7969 16.8853 21.7969 11C21.7969 5.11472 17.0259 0.34375 11.1406 0.34375C5.25534 0.34375 0.484375 5.11472 0.484375 11C0.484375 16.8853 5.25534 21.6562 11.1406 21.6562Z" fill="#F0F0F0"/>
<path d="M19.6922 17.3507C18.6983 16.0201 17.4078 14.9397 15.9233 14.1953C14.4387 13.4509 12.8009 13.063 11.1402 13.0625C9.47943 13.062 7.84144 13.4488 6.35639 14.1922C4.87133 14.9357 3.58015 16.0153 2.58545 17.3452C3.57506 18.6819 4.86412 19.7681 6.34925 20.5167C7.83438 21.2654 9.47427 21.6556 11.1374 21.6561C12.8006 21.6567 14.4407 21.2675 15.9263 20.5198C17.4119 19.7721 18.7017 18.6867 19.6922 17.3507Z" fill="#066D8B"/>
<path d="M11.1406 11.6875C13.4188 11.6875 15.2656 9.84067 15.2656 7.5625C15.2656 5.28433 13.4188 3.4375 11.1406 3.4375C8.86245 3.4375 7.01562 5.28433 7.01562 7.5625C7.01562 9.84067 8.86245 11.6875 11.1406 11.6875Z" fill="#066D8B"/>
</g>
<defs>
<clipPath id="clip0_776_4693">
<rect width="22" height="22" fill="white" transform="translate(0.140625)"/>
</clipPath>
</defs>
</svg>
