<svg width="83" height="83" viewBox="0 0 83 83" fill="none" xmlns="http://www.w3.org/2000/svg">
<rect x="0.281982" y="0.5" width="82" height="82" rx="8" fill="white"/>
<g clip-path="url(#clip0_534_445)">
<path d="M49.2562 37.5448C50.056 36.7531 50.5524 35.6557 50.5524 34.4442C50.5524 32.0378 48.5942 30.0801 46.1874 30.0801C44.3327 30.0801 42.6889 31.2558 42.0751 32.9787C41.8178 32.9312 41.5532 32.9052 41.2823 32.9052C41.0115 32.9052 40.7469 32.9312 40.4896 32.9787C39.8758 31.2557 38.2319 30.0801 36.3773 30.0801C33.9704 30.0801 32.0123 32.0378 32.0123 34.4442C32.0123 35.6557 32.5088 36.7531 33.3086 37.5448C31.3901 38.6376 30.155 40.7071 30.155 42.9577C30.155 43.3462 30.4698 43.6609 30.8581 43.6609C31.2464 43.6609 31.5612 43.3462 31.5612 42.9577C31.5612 40.97 32.8058 39.1649 34.6607 38.457C35.4515 38.7966 36.3255 38.8935 37.1715 38.7353C37.3921 39.351 37.7479 39.9094 38.2127 40.3695C37.2547 40.9116 36.4579 41.6985 35.904 42.6497C35.35 43.601 35.0588 44.6823 35.0602 45.7831C35.0602 46.1715 35.375 46.4862 35.7633 46.4862C36.1516 46.4862 36.4665 46.1715 36.4665 45.7831C36.4653 44.836 36.7439 43.9096 37.2672 43.1201C37.7905 42.3306 38.5352 41.7132 39.408 41.3453C39.4558 41.3251 39.4999 41.2999 39.5406 41.2711C40.0898 41.5113 40.6829 41.6352 41.2823 41.6347C41.8917 41.6347 42.472 41.5088 42.9993 41.2823C44.8534 41.9902 46.0982 43.7972 46.0982 45.7831C46.0982 46.1715 46.413 46.4862 46.8013 46.4862C47.1896 46.4862 47.5045 46.1715 47.5045 45.7831C47.5045 43.5345 46.2691 41.4634 44.3512 40.3701C44.8164 39.91 45.1725 39.3513 45.3932 38.7353C46.2392 38.8936 47.1131 38.7967 47.9038 38.457C49.7588 39.1649 51.0033 40.9698 51.0033 42.9577C51.0033 43.3462 51.3181 43.6609 51.7065 43.6609C52.0948 43.6609 52.4096 43.3462 52.4096 42.9577C52.4098 40.707 51.1747 38.6376 49.2562 37.5448ZM36.9177 37.27C36.9177 37.2977 36.9193 37.3248 36.9197 37.3523C36.7426 37.3853 36.5612 37.4029 36.3774 37.4029C34.7459 37.4029 33.4186 36.0757 33.4186 34.4442C33.4186 32.8133 34.7459 31.4863 36.3774 31.4863C37.6361 31.4863 38.7511 32.285 39.166 33.4544C37.8263 34.2005 36.9177 35.6309 36.9177 37.27ZM38.3239 37.27C38.3239 35.6387 39.6511 34.3115 41.2824 34.3115C42.9138 34.3115 44.2409 35.6386 44.2409 37.27C44.2409 38.9013 42.9138 40.2285 41.2824 40.2285C39.6511 40.2285 38.3239 38.9013 38.3239 37.27ZM45.645 37.3523C45.6455 37.3248 45.6471 37.2976 45.6471 37.27C45.6471 35.6309 44.7384 34.2006 43.3987 33.4545C43.8137 32.2851 44.9287 31.4864 46.1874 31.4864C47.8188 31.4864 49.1461 32.8133 49.1461 34.4443C49.1461 36.0757 47.8188 37.403 46.1874 37.403C46.0054 37.4028 45.8239 37.3858 45.645 37.3523Z" fill="#5FBA8D"/>
<path d="M59.4912 47.888V35.1073C61.2438 34.7765 62.574 33.2349 62.574 31.3876C62.574 29.2997 60.8755 27.6012 58.7877 27.6012C57.6403 27.6012 56.6112 28.115 55.9163 28.9237L44.8549 22.5369C44.9962 22.135 45.0683 21.7121 45.0682 21.2861C45.0682 19.1985 43.3697 17.5 41.282 17.5C39.1943 17.5 37.4957 19.1985 37.4957 21.2862C37.4957 21.7245 37.5714 22.1452 37.709 22.537L26.6476 28.9237C25.9528 28.115 24.9237 27.6012 23.7762 27.6012C21.6884 27.6012 19.9899 29.2997 19.9899 31.3876C19.9899 33.2349 21.3201 34.7764 23.0727 35.1073V47.888C21.3201 48.2188 19.9899 49.7604 19.9899 51.6078C19.9899 53.6956 21.6884 55.3941 23.7762 55.3941C24.9219 55.3941 25.9495 54.8819 26.6444 54.0755L37.7089 60.4634C37.5677 60.8651 37.4956 61.2879 37.4957 61.7138C37.4957 63.8016 39.1942 65.5001 41.282 65.5001C43.3698 65.5001 45.0683 63.8016 45.0683 61.7138C45.0683 61.2757 44.9927 60.855 44.8551 60.4634L55.9197 54.0755C56.6145 54.882 57.6421 55.3941 58.7878 55.3941C60.8756 55.3941 62.5741 53.6956 62.5741 51.6078C62.574 49.7603 61.2437 48.2188 59.4912 47.888ZM58.7877 29.0075C60.1 29.0075 61.1677 30.0752 61.1677 31.3876C61.1677 32.6999 60.1 33.7676 58.7877 33.7676C57.4754 33.7676 56.4076 32.6999 56.4076 31.3876C56.4076 30.0752 57.4754 29.0075 58.7877 29.0075ZM41.282 18.9063C42.5943 18.9063 43.6621 19.9739 43.6621 21.2862C43.6621 22.5973 42.5963 23.6642 41.2857 23.6662L41.282 23.666L41.2784 23.6662C39.9677 23.6642 38.902 22.5973 38.902 21.2862C38.902 19.9739 39.9696 18.9063 41.282 18.9063ZM21.3962 31.3876C21.3962 30.0752 22.4639 29.0075 23.7762 29.0075C25.0886 29.0075 26.1563 30.0752 26.1563 31.3876C26.1563 32.6999 25.0886 33.7676 23.7762 33.7676C22.4639 33.7676 21.3962 32.6999 21.3962 31.3876ZM23.7762 53.9877C22.4639 53.9877 21.3962 52.92 21.3962 51.6077C21.3962 50.2953 22.4639 49.2276 23.7762 49.2276C25.0886 49.2276 26.1563 50.2953 26.1563 51.6077C26.1563 52.92 25.0886 53.9877 23.7762 53.9877ZM41.282 64.0937C39.9697 64.0937 38.902 63.026 38.902 61.7137C38.902 60.4014 39.9697 59.3337 41.282 59.3337C42.5943 59.3337 43.6621 60.4014 43.6621 61.7137C43.6621 63.026 42.5943 64.0937 41.282 64.0937ZM44.1503 59.2464C43.6012 58.6089 42.8442 58.156 41.985 57.994V55.2851C41.985 54.8967 41.6702 54.582 41.2819 54.582C40.8936 54.582 40.5788 54.8967 40.5788 55.2851V57.994C39.7197 58.1561 38.9627 58.6089 38.4135 59.2464L27.3492 52.8586C27.4905 52.4567 27.5626 52.0338 27.5625 51.6078C27.5625 51.1691 27.4866 50.748 27.3488 50.3558L29.6954 49.0007C29.8542 48.9061 29.9695 48.7527 30.0161 48.5738C30.0627 48.3949 30.037 48.2048 29.9446 48.0447C29.8521 47.8846 29.7003 47.7674 29.522 47.7184C29.3438 47.6694 29.1534 47.6925 28.9921 47.7828L26.6434 49.1392C26.0943 48.5023 25.3376 48.0498 24.4789 47.8879V35.1074C25.3379 34.9455 26.0948 34.4928 26.6439 33.8555L28.9957 35.2137C29.0757 35.2599 29.1639 35.2899 29.2555 35.302C29.347 35.3141 29.4401 35.308 29.5293 35.2841C29.6185 35.2602 29.7021 35.219 29.7753 35.1628C29.8486 35.1065 29.91 35.0364 29.9562 34.9564C30.0024 34.8765 30.0324 34.7882 30.0444 34.6967C30.0565 34.6051 30.0504 34.5121 30.0265 34.4229C30.0026 34.3337 29.9614 34.2501 29.9052 34.1768C29.849 34.1035 29.7789 34.0421 29.6989 33.9959L27.3489 32.6387C27.4902 32.2367 27.5624 31.8137 27.5623 31.3876C27.5624 30.9632 27.4908 30.542 27.3506 30.1415L38.4135 23.7538C38.9626 24.3911 39.7196 24.844 40.5785 25.006V27.7151C40.5785 28.1035 40.8933 28.4182 41.2816 28.4182C41.6699 28.4182 41.9848 28.1035 41.9848 27.7151V25.006C42.8437 24.844 43.6006 24.3911 44.1497 23.7538L55.2127 30.1415C55.0725 30.542 55.0009 30.9632 55.001 31.3876C55.001 31.8259 55.0767 32.2468 55.2144 32.6387L52.8643 33.9959C52.7028 34.0891 52.585 34.2427 52.5367 34.4229C52.4885 34.603 52.5138 34.7949 52.607 34.9564C52.7003 35.1179 52.8539 35.2357 53.034 35.284C53.2141 35.3322 53.4061 35.307 53.5675 35.2137L55.9194 33.8555C56.4686 34.4928 57.2255 34.9455 58.0844 35.1074V47.8879C57.2257 48.0498 56.469 48.5023 55.9198 49.1392L53.5712 47.7828C53.4912 47.7367 53.403 47.7067 53.3114 47.6946C53.2199 47.6825 53.1268 47.6886 53.0376 47.7125C52.9484 47.7364 52.8648 47.7776 52.7916 47.8338C52.7183 47.89 52.6568 47.9601 52.6106 48.0401C52.5645 48.1201 52.5345 48.2083 52.5224 48.2999C52.5103 48.3914 52.5164 48.4845 52.5403 48.5737C52.5642 48.6628 52.6054 48.7465 52.6616 48.8197C52.7178 48.893 52.7879 48.9545 52.8679 49.0007L55.2145 50.3558C55.0729 50.758 55.0007 51.1814 55.0008 51.6078C55.0008 52.0461 55.0765 52.4668 55.2141 52.8586L44.1503 59.2464ZM58.7877 53.9877C57.4754 53.9877 56.4076 52.92 56.4076 51.6077C56.4076 50.2953 57.4754 49.2276 58.7877 49.2276C60.1 49.2276 61.1677 50.2953 61.1677 51.6077C61.1677 52.92 60.1 53.9877 58.7877 53.9877Z" fill="#0E758F"/>
<path d="M47.1708 48.7646H45.0783C44.6899 48.7646 44.3751 49.0794 44.3751 49.4678C44.3751 49.8562 44.6899 50.1709 45.0783 50.1709H47.1708C47.5591 50.1709 47.8739 49.8562 47.8739 49.4678C47.8739 49.0794 47.5591 48.7646 47.1708 48.7646ZM47.1708 51.5186H35.3923C35.004 51.5186 34.6892 51.8333 34.6892 52.2217C34.6892 52.6101 35.004 52.9248 35.3923 52.9248H47.1709C47.2632 52.9248 47.3546 52.9066 47.4399 52.8713C47.5252 52.8359 47.6027 52.7841 47.668 52.7188C47.7333 52.6535 47.7851 52.576 47.8204 52.4907C47.8558 52.4054 47.8739 52.314 47.8739 52.2216C47.8739 52.1293 47.8557 52.0379 47.8204 51.9526C47.785 51.8673 47.7333 51.7897 47.668 51.7245C47.6027 51.6592 47.5251 51.6074 47.4398 51.5721C47.3545 51.5367 47.2631 51.5185 47.1708 51.5186ZM35.3923 50.1709H35.402C35.7904 50.1709 36.1052 49.8562 36.1052 49.4678C36.1052 49.0794 35.7904 48.7646 35.402 48.7646H35.3923C35.004 48.7646 34.6892 49.0794 34.6892 49.4678C34.6892 49.8562 35.004 50.1709 35.3923 50.1709ZM37.8375 50.1709C38.2258 50.1709 38.5406 49.8562 38.5406 49.4678C38.5406 49.0794 38.2258 48.7646 37.8375 48.7646H37.8277C37.4394 48.7646 37.1246 49.0794 37.1246 49.4678C37.1246 49.8562 37.4394 50.1709 37.8277 50.1709H37.8375ZM40.2729 50.1709C40.6612 50.1709 40.976 49.8562 40.976 49.4678C40.976 49.0794 40.6612 48.7646 40.2729 48.7646H40.2632C39.8749 48.7646 39.56 49.0794 39.56 49.4678C39.56 49.8562 39.8749 50.1709 40.2632 50.1709H40.2729Z" fill="#5FBA8D"/>
</g>
<defs>
<clipPath id="clip0_534_445">
<rect width="48" height="48" fill="white" transform="translate(17.282 17.5)"/>
</clipPath>
</defs>
</svg>
