<svg width="20" height="20" viewBox="0 0 20 20" fill="none" xmlns="http://www.w3.org/2000/svg">
<g clip-path="url(#clip0_313_568)">
<path d="M17.6562 1.5625H16.7188V0H15.1562V1.5625H4.84375V0H3.28125V1.5625H2.34375C1.05141 1.5625 0 2.61391 0 3.90625V17.6562C0 18.9486 1.05141 20 2.34375 20H17.6562C18.9486 20 20 18.9486 20 17.6562V3.90625C20 2.61391 18.9486 1.5625 17.6562 1.5625ZM18.4375 17.6562C18.4375 18.087 18.087 18.4375 17.6562 18.4375H2.34375C1.91297 18.4375 1.5625 18.087 1.5625 17.6562V7.34375H18.4375V17.6562ZM18.4375 5.78125H1.5625V3.90625C1.5625 3.47547 1.91297 3.125 2.34375 3.125H3.28125V4.6875H4.84375V3.125H15.1562V4.6875H16.7188V3.125H17.6562C18.087 3.125 18.4375 3.47547 18.4375 3.90625V5.78125Z" fill="#5FBA8D"/>
<path d="M2.96875 8.98438H4.53125V10.5469H2.96875V8.98438ZM6.09375 8.98438H7.65625V10.5469H6.09375V8.98438ZM9.21875 8.98438H10.7812V10.5469H9.21875V8.98438ZM12.3438 8.98438H13.9062V10.5469H12.3438V8.98438ZM15.4688 8.98438H17.0312V10.5469H15.4688V8.98438ZM2.96875 12.1094H4.53125V13.6719H2.96875V12.1094ZM6.09375 12.1094H7.65625V13.6719H6.09375V12.1094ZM9.21875 12.1094H10.7812V13.6719H9.21875V12.1094ZM12.3438 12.1094H13.9062V13.6719H12.3438V12.1094ZM2.96875 15.2344H4.53125V16.7969H2.96875V15.2344ZM6.09375 15.2344H7.65625V16.7969H6.09375V15.2344ZM9.21875 15.2344H10.7812V16.7969H9.21875V15.2344ZM12.3438 15.2344H13.9062V16.7969H12.3438V15.2344ZM15.4688 12.1094H17.0312V13.6719H15.4688V12.1094Z" fill="#5FBA8D"/>
</g>
<defs>
<clipPath id="clip0_313_568">
<rect width="20" height="20" fill="white"/>
</clipPath>
</defs>
</svg>
