<svg width="24" height="24" viewBox="0 0 24 24" fill="none" xmlns="http://www.w3.org/2000/svg">
<g clip-path="url(#clip0_773_3051)">
<path d="M19.1875 1.96867H17.75V0.531169C17.75 0.404086 17.6995 0.282208 17.6097 0.192347C17.5198 0.102485 17.3979 0.052002 17.2708 0.052002C17.1437 0.052002 17.0219 0.102485 16.932 0.192347C16.8421 0.282208 16.7917 0.404086 16.7917 0.531169V1.96867H7.20833V0.531169C7.20833 0.404086 7.15785 0.282208 7.06799 0.192347C6.97813 0.102485 6.85625 0.052002 6.72917 0.052002C6.60208 0.052002 6.48021 0.102485 6.39034 0.192347C6.30048 0.282208 6.25 0.404086 6.25 0.531169V1.96867H4.8125C3.66914 1.96994 2.57298 2.4247 1.7645 3.23317C0.956027 4.04165 0.501268 5.13781 0.5 6.28117L0.5 18.7395C0.5 21.1171 2.43488 23.052 4.8125 23.052H19.1875C21.5651 23.052 23.5 21.1171 23.5 18.7395V6.28117C23.5 3.90354 21.5651 1.96867 19.1875 1.96867ZM4.8125 2.927H19.1875C21.0371 2.927 22.5417 4.43159 22.5417 6.28117V7.71867H1.45833V6.28117C1.45833 4.43159 2.96292 2.927 4.8125 2.927ZM19.1875 22.0937H4.8125C2.96292 22.0937 1.45833 20.5891 1.45833 18.7395V8.677H22.5417V18.7395C22.5417 20.5891 21.0371 22.0937 19.1875 22.0937ZM18.7083 12.9895C18.7083 13.1166 18.6579 13.2385 18.568 13.3283C18.4781 13.4182 18.3562 13.4687 18.2292 13.4687H5.77083C5.64375 13.4687 5.52187 13.4182 5.43201 13.3283C5.34215 13.2385 5.29167 13.1166 5.29167 12.9895C5.29167 12.8624 5.34215 12.7405 5.43201 12.6507C5.52187 12.5608 5.64375 12.5103 5.77083 12.5103H18.2292C18.3562 12.5103 18.4781 12.5608 18.568 12.6507C18.6579 12.7405 18.7083 12.8624 18.7083 12.9895ZM12 17.7812C12 17.9083 11.9495 18.0301 11.8597 18.12C11.7698 18.2099 11.6479 18.2603 11.5208 18.2603H5.77083C5.64375 18.2603 5.52187 18.2099 5.43201 18.12C5.34215 18.0301 5.29167 17.9083 5.29167 17.7812C5.29167 17.6541 5.34215 17.5322 5.43201 17.4423C5.52187 17.3525 5.64375 17.302 5.77083 17.302H11.5208C11.6479 17.302 11.7698 17.3525 11.8597 17.4423C11.9495 17.5322 12 17.6541 12 17.7812Z" fill="#064EA9"/>
</g>
<defs>
<clipPath id="clip0_773_3051">
<rect width="23" height="23" fill="white" transform="translate(0.5 0.052002)"/>
</clipPath>
</defs>
</svg>
