<svg width="36" height="36" viewBox="0 0 36 36" fill="none" xmlns="http://www.w3.org/2000/svg">
<path d="M32.1547 5.62558L27.825 3.3291L27.2976 4.32297L31.7511 6.68498C31.8322 6.72805 31.9228 6.75057 32.0147 6.75058H34.8272V5.62558H32.1547Z" fill="#066D8B"/>
<path d="M31.9639 11.2533L28.5819 11.5607C27.7982 11.6301 27.0091 11.5168 26.2766 11.2296C25.5441 10.9424 24.8882 10.4893 24.3605 9.90569L22.6107 7.96134C22.3456 7.66665 22.1927 7.28803 22.1787 6.89186C22.1648 6.4957 22.2908 6.10729 22.5347 5.79473L25.5153 7.78176C25.5767 7.8236 25.6458 7.85285 25.7186 7.86782C25.7915 7.88279 25.8665 7.88318 25.9395 7.86896C26.0124 7.85474 26.0819 7.82621 26.1437 7.785C26.2056 7.74379 26.2587 7.69072 26.2999 7.62887C26.3412 7.56702 26.3697 7.49761 26.384 7.42465C26.3982 7.35169 26.3979 7.27663 26.3829 7.20381C26.368 7.13099 26.3388 7.06185 26.297 7.0004C26.2551 6.93894 26.2015 6.88638 26.1393 6.84576L22.7643 4.59576L22.7632 4.59498L22.7625 4.59456C22.6698 4.53316 22.5609 4.50059 22.4496 4.50098H16.2652C15.621 4.50074 14.9971 4.27592 14.5009 3.86524C14.0047 3.45455 13.6672 2.8837 13.5465 2.25098H23.3902L26.1725 3.7267L26.6998 2.73283L23.794 1.19158C23.7128 1.14849 23.6223 1.12596 23.5304 1.12598H12.9367C12.7889 1.12596 12.647 1.18415 12.5417 1.28796C12.4364 1.39177 12.3763 1.53284 12.3742 1.68067C12.3671 2.19618 12.4624 2.70798 12.6547 3.18633C12.8471 3.66467 13.1325 4.10003 13.4945 4.46711C13.8566 4.83419 14.2879 5.12566 14.7635 5.32461C15.2392 5.52355 15.7496 5.62599 16.2652 5.62598H21.3239C21.0858 6.12772 21.0016 6.6887 21.0818 7.23824C21.1621 7.78777 21.4032 8.30125 21.7748 8.71396L23.5246 10.6582C24.1069 11.3022 24.8176 11.8171 25.6109 12.1699C26.4043 12.5226 27.2627 12.7054 28.1309 12.7064C28.3148 12.7064 28.499 12.6981 28.6837 12.6814L32.0403 12.376H34.8272V11.251H32.0147C31.9981 11.251 31.9808 11.2517 31.9639 11.2533ZM19.7326 30.376H17.4364V31.501H19.7326C20.3767 31.5012 21.0006 31.726 21.4968 32.1367C21.9931 32.5474 22.3306 33.1182 22.4513 33.751H12.6075L4.24651 29.3166C4.16532 29.2735 4.07482 29.251 3.98291 29.251H1.17041V30.376H3.84299L12.2037 34.8104C12.2849 34.8535 12.3754 34.876 12.4673 34.876H23.0614C23.2092 34.876 23.3511 34.8178 23.4564 34.714C23.5616 34.6102 23.6218 34.4691 23.6239 34.3213C23.631 33.8057 23.5357 33.2939 23.3433 32.8155C23.151 32.3372 22.8655 31.9018 22.5034 31.5347C22.1414 31.1676 21.71 30.8762 21.2343 30.6772C20.7586 30.4783 20.2481 30.3759 19.7326 30.376Z" fill="#066D8B"/>
<path d="M4.03382 24.7487L7.41585 24.4412C8.19955 24.3718 8.98868 24.4851 9.72117 24.7723C10.4537 25.0595 11.1095 25.5127 11.6372 26.0963L13.387 28.0406C13.6522 28.3353 13.8053 28.714 13.8192 29.1102C13.8332 29.5064 13.7071 29.8949 13.4633 30.2075L10.4825 28.2205C10.421 28.1786 10.3519 28.1494 10.2791 28.1344C10.2063 28.1194 10.1312 28.1191 10.0582 28.1333C9.98528 28.1475 9.91585 28.176 9.85398 28.2172C9.79212 28.2584 9.73903 28.3115 9.69779 28.3734C9.65656 28.4352 9.62799 28.5046 9.61374 28.5776C9.5995 28.6505 9.59985 28.7256 9.61479 28.7984C9.62973 28.8712 9.65895 28.9404 9.70077 29.0018C9.74259 29.0633 9.79618 29.1159 9.85843 29.1565L13.2334 31.4065L13.2345 31.4072C13.3264 31.4681 13.435 31.501 13.5453 31.501H16.3114V30.376H14.6738C14.9119 29.8743 14.9962 29.3133 14.9159 28.7637C14.8357 28.2142 14.5946 27.7007 14.2229 27.288L12.4731 25.3437C11.8282 24.6305 11.0266 24.0766 10.1314 23.7256C9.23612 23.3746 8.27167 23.236 7.31382 23.3208L3.95746 23.626H1.17041V24.751H3.98291C3.99964 24.751 4.01694 24.7502 4.03382 24.7487ZM20.2489 10.6885H15.7489C15.5997 10.6885 15.4566 10.7477 15.3511 10.8532C15.2456 10.9587 15.1864 11.1018 15.1864 11.251V15.1885H14.0614V16.3135H15.7489C15.898 16.3135 16.0411 16.2542 16.1466 16.1487C16.2521 16.0432 16.3114 15.9002 16.3114 15.751V11.8135H19.6864V15.751C19.6864 15.9002 19.7456 16.0432 19.8511 16.1487C19.9566 16.2542 20.0997 16.3135 20.2489 16.3135H24.1864V19.6885H20.2489C20.0997 19.6885 19.9566 19.7477 19.8511 19.8532C19.7456 19.9587 19.6864 20.1018 19.6864 20.251V24.1885H16.3114V20.251C16.3114 20.1018 16.2521 19.9587 16.1466 19.8532C16.0411 19.7477 15.898 19.6885 15.7489 19.6885H11.8114V16.3135H12.9364V15.1885H11.2489C11.0997 15.1885 10.9566 15.2477 10.8511 15.3532C10.7456 15.4587 10.6864 15.6018 10.6864 15.751V20.251C10.6864 20.4002 10.7456 20.5432 10.8511 20.6487C10.9566 20.7542 11.0997 20.8135 11.2489 20.8135H15.1864V24.751C15.1864 24.9002 15.2456 25.0432 15.3511 25.1487C15.4566 25.2542 15.5997 25.3135 15.7489 25.3135H20.2489C20.398 25.3135 20.5411 25.2542 20.6466 25.1487C20.7521 25.0432 20.8114 24.9002 20.8114 24.751V20.8135H24.7489C24.898 20.8135 25.0411 20.7542 25.1466 20.6487C25.2521 20.5432 25.3114 20.4002 25.3114 20.251V15.751C25.3114 15.6018 25.2521 15.4587 25.1466 15.3532C25.0411 15.2477 24.898 15.1885 24.7489 15.1885H20.8114V11.251C20.8114 11.1018 20.7521 10.9587 20.6466 10.8532C20.5411 10.7477 20.398 10.6885 20.2489 10.6885Z" fill="#5FBA8D"/>
<path d="M7.31141 18.001C7.31015 19.1979 7.51095 20.3865 7.90534 21.5166L8.96741 21.1457C8.61472 20.1348 8.4352 19.0716 8.43641 18.001C8.43641 12.7282 12.7261 8.43848 17.9989 8.43848C18.354 8.43852 18.7089 8.45809 19.0619 8.49712L19.1859 7.37915C18.7918 7.33546 18.3955 7.31354 17.9989 7.31348C12.1058 7.31348 7.31141 12.1079 7.31141 18.001ZM17.9989 27.5635C17.6438 27.5634 17.2889 27.5439 16.9359 27.5048L16.8119 28.6228C17.2061 28.6665 17.6023 28.6884 17.9989 28.6885C23.892 28.6885 28.6864 23.8941 28.6864 18.001C28.6877 16.804 28.4869 15.6155 28.0925 14.4854L27.0304 14.8562C27.3831 15.8671 27.5626 16.9303 27.5614 18.001C27.5614 23.2738 23.2717 27.5635 17.9989 27.5635Z" fill="#066D8B"/>
<path d="M30.157 14.1738C30.0662 14.241 29.9977 14.3341 29.9605 14.4409C29.9233 14.5476 29.9192 14.6631 29.9486 14.7723C30.6709 17.4584 30.4688 20.3094 29.3748 22.8667C28.2808 25.4241 26.3584 27.5391 23.9169 28.8718L24.4558 29.8594C26.9148 28.5173 28.8961 26.4446 30.1261 23.9277C31.356 21.4108 31.7738 18.5739 31.3216 15.8093L32.8878 16.7901L33.4849 15.8367L30.7903 14.1492C30.6945 14.0892 30.5828 14.0594 30.4699 14.0638C30.3569 14.0682 30.2479 14.1065 30.157 14.1738ZM5.36787 21.3759C5.45208 21.3759 5.53522 21.357 5.61115 21.3206C5.68707 21.2842 5.75386 21.2312 5.80657 21.1655C5.85928 21.0998 5.89658 21.0231 5.91571 20.9411C5.93483 20.8591 5.9353 20.7739 5.91708 20.6917C5.31118 17.9673 5.64339 15.1182 6.85983 12.6063C8.07628 10.0945 10.1056 8.0672 12.6187 6.85332L12.1291 5.84082C9.57229 7.07809 7.47018 9.08924 6.1211 11.5888C4.77202 14.0884 4.2445 16.9494 4.61342 19.7657L2.51656 18.6312L1.9812 19.6206L5.10026 21.3081C5.18244 21.3526 5.27442 21.3759 5.36787 21.3759Z" fill="#066D8B"/>
</svg>
