<svg width="26" height="25" viewBox="0 0 26 25" fill="none" xmlns="http://www.w3.org/2000/svg">
<path d="M24.1641 11.5234H13.6172V0.976562C13.6172 0.437207 13.18 0 12.6406 0C12.1013 0 11.6641 0.437207 11.6641 0.976562V11.5234H1.11719C0.577832 11.5234 0.140625 11.9606 0.140625 12.5C0.140625 13.0394 0.577832 13.4766 1.11719 13.4766H11.6641V24.0234C11.6641 24.5628 12.1013 25 12.6406 25C13.18 25 13.6172 24.5628 13.6172 24.0234V13.4766H24.1641C24.7034 13.4766 25.1406 13.0394 25.1406 12.5C25.1406 11.9606 24.7034 11.5234 24.1641 11.5234Z" fill="#5FBA8D"/>
</svg>
