<svg width="80" height="79" viewBox="0 0 80 79" fill="none" xmlns="http://www.w3.org/2000/svg">
<path d="M38.2782 1.54718C39.3467 0.943449 40.6533 0.943448 41.7218 1.54718L72.3628 18.8606C73.4616 19.4814 74.141 20.6458 74.141 21.9078V56.3865C74.141 57.6486 73.4616 58.8129 72.3628 59.4337L41.7218 76.7471C40.6533 77.3509 39.3467 77.3509 38.2782 76.7471L7.63719 59.4337C6.53842 58.8129 5.85898 57.6486 5.85898 56.3865V21.9078C5.85898 20.6458 6.53842 19.4814 7.63719 18.8606L38.2782 1.54718Z" fill="white" stroke="white"/>
<g clip-path="url(#clip0_359_445)">
<path d="M53.6355 32.5241C52.3911 30.3777 49.6549 29.413 46.2377 29.6031C43.0113 23.0719 36.9851 23.0677 33.7574 29.6031C26.4854 29.0985 23.4394 34.3427 27.518 40.363C23.3863 46.4961 26.5979 51.6429 33.7532 51.1139C36.9802 57.6576 43.0141 57.6604 46.2419 51.1139C53.3699 51.6652 56.6165 46.4682 52.4771 40.363C54.3507 37.5123 54.8806 34.6712 53.6355 32.5241ZM47.1004 30.6958C52.7735 30.6101 54.8184 34.619 51.7745 39.3761C50.7099 38.0096 49.4895 36.7708 48.1378 35.6846C47.8691 33.9789 47.4027 32.3099 46.748 30.7111C46.8641 30.7076 46.9864 30.6958 47.1004 30.6958ZM48.3573 37.3564C49.3738 38.2634 50.2953 39.2708 51.1076 40.363C50.2953 41.4552 49.3738 42.4626 48.3573 43.3697C48.5586 41.3703 48.5586 39.3558 48.3573 37.3564ZM47.3842 40.363C47.3853 41.7267 47.2862 43.0887 47.0878 44.438C46.0129 45.2839 44.8774 46.0504 43.6902 46.7313C42.5046 47.4133 41.2704 48.0078 39.9975 48.5103C38.7244 48.0079 37.49 47.4133 36.3042 46.7313C35.1172 46.0504 33.9819 45.2839 32.9073 44.438C32.5118 41.7356 32.5118 38.9904 32.9073 36.288C35.0579 34.5942 37.4468 33.2243 39.9975 32.2221C42.5483 33.2243 44.9372 34.5942 47.0878 36.288C47.2862 37.6373 47.3853 38.9993 47.3842 40.363ZM46.7935 34.6594C45.1579 33.4883 43.4089 32.4827 41.5726 31.6576C42.8676 31.2355 44.2022 30.9451 45.556 30.7911C46.0985 32.0357 46.5131 33.3317 46.7935 34.6594ZM39.9975 25.805C41.9396 25.805 43.7076 27.2917 45.0275 29.7158C43.3064 29.9504 41.6184 30.3832 39.9975 31.0055C38.3767 30.3832 36.6887 29.9504 34.9675 29.7158C36.2874 27.2917 38.0554 25.805 39.9975 25.805ZM34.4397 30.7911C35.7933 30.9452 37.1277 31.2356 38.4225 31.6576C36.5858 32.4816 34.837 33.4872 33.2023 34.6594C33.4826 33.3317 33.8972 32.0357 34.4397 30.7911ZM27.3327 33.083C28.2625 31.4808 30.2948 30.6951 32.894 30.6951C33.008 30.6951 33.1303 30.7076 33.2464 30.7104C32.5916 32.3092 32.1252 33.9782 31.8566 35.6839C30.5049 36.7701 29.2845 38.0089 28.2199 39.3754C26.772 37.0258 26.3624 34.7568 27.3327 33.083ZM31.637 43.369C30.6208 42.4621 29.6996 41.455 28.8875 40.363C29.6998 39.2708 30.6212 38.2634 31.6377 37.3564C31.4364 39.3558 31.4364 41.3703 31.6377 43.3697L31.637 43.369ZM27.3327 47.641C26.3624 45.9671 26.772 43.6989 28.2206 41.3492C29.2849 42.7157 30.5051 43.9545 31.8566 45.0408C32.1252 46.7467 32.5916 48.4159 33.2464 50.015C30.4828 50.0867 28.3037 49.3134 27.3327 47.641ZM33.2016 46.0659C34.8412 47.2413 36.5963 48.248 38.4399 49.0705C37.1393 49.4936 35.7987 49.7835 34.439 49.9356C33.8964 48.6906 33.4819 47.3941 33.2016 46.0659ZM39.9968 54.9203C38.0526 54.9203 36.2825 53.4295 34.9619 51.0005C36.6847 50.768 38.3744 50.3364 39.9968 49.7143C41.6192 50.3367 43.3089 50.7685 45.0317 51.0012C43.7111 53.4302 41.9417 54.9203 39.9968 54.9203ZM45.5547 49.9356C44.1949 49.7835 42.8543 49.4936 41.5537 49.0705C43.3974 48.248 45.1525 47.2413 46.7921 46.0659C46.5118 47.3941 46.0972 48.6906 45.5547 49.9356ZM52.661 47.6417C51.6906 49.3141 49.5108 50.0867 46.7473 50.015C47.4021 48.4159 47.8685 46.7467 48.1371 45.0408C49.4888 43.9545 50.7092 42.7157 51.7738 41.3492C53.2223 43.6989 53.6313 45.9678 52.661 47.6417Z" fill="#5FBA8D"/>
<path d="M40.037 37.0432C37.0281 34.3441 32.5343 38.4031 35.7571 42.1378C36.9597 43.3871 38.2674 44.5317 39.6658 45.5593C39.761 45.6321 39.8777 45.6716 39.9978 45.6716C40.1179 45.6716 40.2347 45.6321 40.3299 45.5593C41.7283 44.5317 43.0359 43.387 44.2386 42.1378C47.4055 38.4874 43.1025 34.3497 40.037 37.0432Z" fill="#5FBA8D"/>
<path d="M40.0003 18.5137C35.8522 18.5137 31.7973 19.7649 28.3483 22.1092C24.8994 24.4534 22.2112 27.7854 20.6238 31.6838C19.0364 35.5822 18.6211 39.8718 19.4303 44.0103C20.2396 48.1488 22.2371 51.9503 25.1702 54.9339C28.1033 57.9176 31.8403 59.9495 35.9086 60.7727C39.977 61.5959 44.1939 61.1734 48.0262 59.5587C51.8585 57.9439 55.134 55.2094 57.4386 51.701C59.7431 48.1925 60.9732 44.0677 60.9732 39.8482C60.9669 34.1919 58.7552 28.7691 54.8234 24.7695C50.8916 20.7699 45.5607 18.5201 40.0003 18.5137ZM40.0003 59.9673C36.0885 59.9673 32.2646 58.7874 29.0121 56.5766C25.7596 54.3659 23.2246 51.2237 21.7276 47.5474C20.2307 43.8711 19.839 39.8259 20.6021 35.9231C21.3653 32.0204 23.249 28.4355 26.015 25.6218C28.781 22.8081 32.3051 20.8919 36.1417 20.1156C39.9783 19.3393 43.955 19.7377 47.569 21.2605C51.183 22.7833 54.2719 25.362 56.4452 28.6706C58.6184 31.9792 59.7784 35.869 59.7784 39.8482C59.7725 45.1823 57.6868 50.2961 53.979 54.0679C50.2711 57.8397 45.2439 59.9613 40.0003 59.9673Z" fill="#066C8A"/>
</g>
<defs>
<clipPath id="clip0_359_445">
<rect width="44.7422" height="44.5432" fill="white" transform="translate(17.6289 18.0918)"/>
</clipPath>
</defs>
</svg>
