<svg width="40" height="39" viewBox="0 0 40 39" fill="none" xmlns="http://www.w3.org/2000/svg">
<path d="M20.3849 21.8955C19.0402 21.8892 17.7042 21.6784 16.4228 21.2704C15.4171 20.9339 14.5187 20.3366 13.8192 19.5395C13.1198 18.7423 12.6444 17.7738 12.4415 16.7329C11.9898 14.5575 12.8135 12.2573 14.6998 10.4214C14.9024 10.2241 15.113 10.0352 15.3309 9.85503C16.2824 9.05839 17.4135 8.50528 18.6265 8.24345C19.8395 7.98161 21.098 8.01892 22.2934 8.35214C23.4398 8.71821 24.4448 9.43009 25.1706 10.3901C25.8963 11.3501 26.3071 12.5112 26.3467 13.7139C26.4347 15.1327 25.9722 16.5308 25.0556 17.6173C24.7088 18.054 24.2484 18.3867 23.725 18.5789C23.2015 18.7711 22.6352 18.8153 22.0882 18.7068C21.8625 18.6599 21.6486 18.568 21.4592 18.4366C21.2698 18.3052 21.1089 18.1369 20.9861 17.9418C20.8759 17.7523 20.805 17.5425 20.7778 17.325C20.7506 17.1075 20.7676 16.8867 20.8277 16.6759C21.3527 14.6925 21.886 11.6783 21.8914 11.6483C21.9051 11.5707 21.934 11.4965 21.9764 11.4301C22.0187 11.3636 22.0738 11.3062 22.1383 11.261C22.2029 11.2158 22.2757 11.1838 22.3527 11.1668C22.4296 11.1497 22.5092 11.148 22.5868 11.1617C22.6644 11.1754 22.7385 11.2043 22.805 11.2467C22.8714 11.289 22.9289 11.3441 22.9741 11.4086C23.0192 11.4732 23.0513 11.546 23.0683 11.623C23.0853 11.6999 23.087 11.7795 23.0733 11.8571C23.0511 11.9825 22.5256 14.9511 21.988 16.9825C21.9691 17.0382 21.9617 17.0973 21.9663 17.156C21.971 17.2147 21.9876 17.2718 22.015 17.3239C22.098 17.4386 22.2232 17.5156 22.363 17.5381C22.6979 17.594 23.0418 17.5573 23.3574 17.432C23.6731 17.3067 23.9485 17.0975 24.1539 16.8271C24.8657 15.9756 25.2223 14.8826 25.1498 13.7751C25.1212 12.8177 24.7969 11.8925 24.2216 11.1266C23.6463 10.3607 22.848 9.79165 21.9364 9.49746C20.9321 9.2212 19.8757 9.19346 18.8582 9.41661C17.8408 9.63977 16.893 10.1071 16.0965 10.7784C15.9039 10.9386 15.7161 11.1059 15.5361 11.2811C14.6038 12.1883 13.1141 14.0709 13.6162 16.4887C13.782 17.3188 14.1618 18.0912 14.718 18.7293C15.2741 19.3675 15.9874 19.8492 16.787 20.1269C19.6008 21.0244 23.6445 21.133 25.7743 18.4842C25.8752 18.3642 26.0191 18.2884 26.1751 18.2732C26.3312 18.2579 26.487 18.3043 26.6092 18.4025C26.7315 18.5006 26.8104 18.6428 26.8292 18.7984C26.848 18.9541 26.8051 19.1109 26.7097 19.2353C25.1342 21.1948 22.7368 21.8955 20.3849 21.8955Z" fill="white"/>
<path d="M18.3275 18.7841C17.6933 18.7951 17.0746 18.5873 16.5757 18.1955C15.4243 17.274 15.3925 15.6727 15.7153 14.5826C15.8245 14.2196 15.9703 13.8686 16.1515 13.5356C16.6016 12.6274 17.3214 11.8803 18.2123 11.3968C18.7527 11.1165 19.3689 11.0174 19.9699 11.1142C20.5709 11.211 21.1248 11.4986 21.5499 11.9344C21.9828 12.4088 22.3089 12.9706 22.5062 13.5818C22.5558 13.7308 22.545 13.8933 22.4762 14.0344C22.4074 14.1755 22.2859 14.284 22.138 14.3366C21.9901 14.3893 21.8274 14.3818 21.6849 14.3158C21.5424 14.2498 21.4315 14.1307 21.3759 13.9838C21.2336 13.5324 20.9973 13.1163 20.6823 12.7629C20.4348 12.5097 20.1112 12.3443 19.7609 12.292C19.4106 12.2396 19.0529 12.3033 18.7421 12.4731C18.0739 12.85 17.537 13.4221 17.2032 14.1128C17.063 14.3717 16.9498 14.6443 16.8654 14.9263C16.632 15.7147 16.6836 16.7442 17.3268 17.259C18.0299 17.8241 19.2167 17.5853 19.8844 17.0094C20.3818 16.5613 20.8091 16.0412 21.1521 15.4663C21.1937 15.3993 21.248 15.3412 21.312 15.2952C21.3761 15.2493 21.4485 15.2164 21.5253 15.1984C21.602 15.1804 21.6815 15.1778 21.7593 15.1905C21.8371 15.2033 21.9116 15.2313 21.9786 15.2728C22.0455 15.3144 22.1036 15.3687 22.1496 15.4327C22.1956 15.4968 22.2285 15.5692 22.2465 15.646C22.2644 15.7227 22.2671 15.8022 22.2543 15.88C22.2416 15.9578 22.2136 16.0323 22.172 16.0993C21.7654 16.7765 21.2592 17.3887 20.6703 17.9153C20.0144 18.4688 19.1858 18.7761 18.3275 18.7841Z" fill="white"/>
<path d="M35.8381 37.4995H3.44049C2.96328 37.4991 2.50576 37.3093 2.16832 36.9718C1.83088 36.6344 1.6411 36.1769 1.64063 35.6997V13.5013C1.64055 13.3873 1.67299 13.2756 1.73414 13.1793C1.79529 13.083 1.88261 13.0062 1.98587 12.9577C2.08913 12.9093 2.20406 12.8913 2.31718 12.9059C2.43029 12.9205 2.53692 12.967 2.62455 13.04L17.3451 25.2742C17.9908 25.8078 18.8022 26.0997 19.6399 26.0997C20.4775 26.0997 21.289 25.8078 21.9347 25.2742L36.654 13.0394C36.7417 12.9663 36.8484 12.9198 36.9615 12.9053C37.0747 12.8907 37.1897 12.9088 37.293 12.9573C37.3962 13.0058 37.4836 13.0827 37.5447 13.1791C37.6058 13.2754 37.6381 13.3872 37.6379 13.5013V35.6997C37.6375 36.1769 37.4477 36.6344 37.1102 36.9718C36.7728 37.3093 36.3153 37.4991 35.8381 37.4995ZM2.84054 14.7798V35.6997C2.84054 36.0308 3.10932 36.2996 3.44049 36.2996H35.8381C35.9972 36.2996 36.1498 36.2364 36.2623 36.1239C36.3748 36.0114 36.438 35.8588 36.438 35.6997V14.7798L22.7003 26.197C21.8391 26.9086 20.7569 27.2981 19.6398 27.2983C18.5226 27.2985 17.4403 26.9095 16.5789 26.1982L2.84054 14.7798Z" fill="white"/>
<path d="M2.24175 14.1017C2.11434 14.102 1.99016 14.0617 1.88719 13.9866C1.78423 13.9116 1.70783 13.8057 1.66907 13.6843C1.6303 13.5629 1.63118 13.4324 1.67159 13.3115C1.71199 13.1907 1.78981 13.0859 1.89378 13.0122L7.29337 9.18451C7.42321 9.09246 7.5843 9.05576 7.7412 9.08248C7.8981 9.1092 8.03796 9.19716 8.13001 9.327C8.22206 9.45684 8.25876 9.61793 8.23204 9.77483C8.20532 9.93173 8.11736 10.0716 7.98752 10.1636L2.58792 13.9914C2.48683 14.0633 2.36582 14.1019 2.24175 14.1017ZM37.0379 14.1017C36.9139 14.1019 36.7929 14.0633 36.6918 13.9914L31.2922 10.1636C31.1637 10.0711 31.077 9.9316 31.051 9.77544C31.0249 9.61928 31.0617 9.45916 31.1532 9.32998C31.2447 9.20079 31.3835 9.11301 31.5395 9.08576C31.6954 9.05851 31.8558 9.09401 31.9857 9.18451L37.3853 13.0122C37.4892 13.0858 37.567 13.1905 37.6074 13.3113C37.6478 13.432 37.6488 13.5624 37.6102 13.6837C37.5716 13.8051 37.4954 13.9109 37.3926 13.9861C37.2899 14.0612 37.1653 14.1017 37.0379 14.1017ZM25.1834 5.70237C25.0592 5.70248 24.938 5.6639 24.8367 5.59198L21.9689 3.55813C21.3238 3.01291 20.5078 2.71143 19.6633 2.70628C18.8187 2.70113 17.9991 2.99262 17.3474 3.52993L14.4436 5.59198C14.3138 5.68403 14.1527 5.72073 13.9958 5.69401C13.8389 5.66728 13.699 5.57933 13.607 5.44949C13.515 5.31965 13.4782 5.15856 13.505 5.00166C13.5317 4.84476 13.6196 4.7049 13.7495 4.61285L16.6173 2.579C17.4764 1.8765 18.5533 1.49501 19.6631 1.50005C20.7729 1.50509 21.8463 1.89633 22.699 2.6066L25.5308 4.61285C25.6348 4.6865 25.7126 4.79134 25.753 4.91218C25.7934 5.03301 25.7943 5.16358 25.7555 5.28495C25.7168 5.40632 25.6404 5.5122 25.5374 5.58725C25.4344 5.6623 25.3102 5.70262 25.1828 5.70237H25.1834ZM2.63112 37.176C2.50758 37.1763 2.38698 37.1384 2.28579 37.0675C2.1846 36.9966 2.10775 36.8963 2.06574 36.7801C2.02373 36.6639 2.01861 36.5376 2.05108 36.4184C2.08355 36.2992 2.15202 36.1929 2.24715 36.1141L15.9381 24.7389C15.9988 24.6886 16.0687 24.6507 16.144 24.6274C16.2193 24.6041 16.2984 24.5958 16.3769 24.6031C16.4553 24.6104 16.5316 24.633 16.6013 24.6698C16.671 24.7065 16.7328 24.7566 16.7832 24.8172C16.8335 24.8779 16.8714 24.9478 16.8947 25.0231C16.918 25.0984 16.9263 25.1775 16.919 25.256C16.9118 25.3344 16.8891 25.4107 16.8524 25.4804C16.8156 25.5501 16.7655 25.6119 16.7049 25.6623L3.01389 37.0374C2.90643 37.127 2.77099 37.176 2.63112 37.176ZM36.648 37.176C36.5081 37.1762 36.3726 37.1271 36.2652 37.0374L22.5742 25.6623C22.512 25.6125 22.4604 25.5507 22.4223 25.4807C22.3843 25.4107 22.3605 25.3338 22.3525 25.2546C22.3444 25.1753 22.3523 25.0952 22.3755 25.019C22.3988 24.9428 22.437 24.8719 22.4879 24.8106C22.5389 24.7494 22.6015 24.6988 22.6722 24.662C22.7428 24.6252 22.8201 24.6028 22.8995 24.5962C22.979 24.5896 23.0589 24.5988 23.1347 24.6235C23.2105 24.6481 23.2806 24.6875 23.341 24.7395L37.0319 36.1147C37.1271 36.1935 37.1955 36.2998 37.228 36.419C37.2605 36.5382 37.2554 36.6645 37.2134 36.7807C37.1713 36.8969 37.0945 36.9972 36.9933 37.0681C36.8921 37.139 36.7715 37.1763 36.648 37.176Z" fill="white"/>
<path d="M31.6372 18.5893C31.4781 18.5893 31.3255 18.5261 31.213 18.4136C31.1005 18.301 31.0373 18.1484 31.0373 17.9893V5.70704C31.0355 5.71904 31.0115 5.70224 30.9713 5.70224H8.30497C8.29185 5.70145 8.2787 5.70333 8.26633 5.70776C8.25395 5.7122 8.24261 5.71909 8.23297 5.72804L8.23897 17.9893C8.23897 18.1484 8.17576 18.301 8.06325 18.4136C7.95074 18.5261 7.79814 18.5893 7.63902 18.5893C7.4799 18.5893 7.3273 18.5261 7.21479 18.4136C7.10227 18.301 7.03906 18.1484 7.03906 17.9893V5.70224C7.04848 5.37548 7.18698 5.06576 7.42423 4.84087C7.66149 4.61599 7.97817 4.49426 8.30497 4.50233H30.9713C31.2981 4.49426 31.6148 4.61599 31.852 4.84087C32.0893 5.06576 32.2278 5.37548 32.2372 5.70224V17.9893C32.2372 18.1484 32.174 18.301 32.0615 18.4136C31.9489 18.5261 31.7963 18.5893 31.6372 18.5893Z" fill="white"/>
</svg>
