<svg width="24" height="25" viewBox="0 0 24 25" fill="none" xmlns="http://www.w3.org/2000/svg">
<mask id="mask0_313_634" style="mask-type:alpha" maskUnits="userSpaceOnUse" x="0" y="0" width="24" height="25">
<rect y="0.203125" width="24" height="24" fill="#D9D9D9"/>
</mask>
<g mask="url(#mask0_313_634)">
<path d="M4.1155 21.2028C3.65517 21.2028 3.27083 21.0487 2.9625 20.7403C2.65417 20.432 2.5 20.0477 2.5 19.5873V8.3566H3.5V19.5873C3.5 19.7668 3.55767 19.9143 3.673 20.0298C3.7885 20.1452 3.936 20.2028 4.1155 20.2028H17V21.2028H4.1155ZM13.5 13.7373L6.5 9.63734V16.5873C6.5 16.7668 6.55767 16.9143 6.673 17.0298C6.7885 17.1452 6.936 17.2028 7.1155 17.2028H19.8845C20.064 17.2028 20.2115 17.1452 20.327 17.0298C20.4423 16.9143 20.5 16.7668 20.5 16.5873V9.63734L13.5 13.7373ZM7.1155 18.2028C6.65517 18.2028 6.27083 18.0487 5.9625 17.7403C5.65417 17.432 5.5 17.0477 5.5 16.5873V8.89509C5.5 8.63493 5.55033 8.41059 5.651 8.2221C5.75167 8.0336 5.92825 7.86693 6.18075 7.7221L13.5 3.43359L14.4808 4.01234L6.7 8.59134L13.5 12.5913L20.1155 8.70659C20.2757 8.60793 20.4337 8.55959 20.5895 8.56159C20.7452 8.56343 20.8948 8.60534 21.0385 8.68734C21.182 8.76951 21.2948 8.87818 21.377 9.01334C21.459 9.14868 21.5 9.30668 21.5 9.48734V16.5873C21.5 17.0477 21.3458 17.432 21.0375 17.7403C20.7292 18.0487 20.3448 18.2028 19.8845 18.2028H7.1155ZM13.3077 10.6258L11.2 8.51834L11.9078 7.81059L13.3077 9.21059L16.8577 5.66059L17.5655 6.36834L13.3077 10.6258Z" fill="white"/>
</g>
</svg>
