<svg width="24" height="24" viewBox="0 0 24 24" fill="none" xmlns="http://www.w3.org/2000/svg">
<mask id="mask0_203_905" style="mask-type:alpha" maskUnits="userSpaceOnUse" x="0" y="0" width="24" height="24">
<rect width="24" height="24" fill="#D9D9D9"/>
</mask>
<g mask="url(#mask0_203_905)">
<path d="M4.1155 20.9997C3.65517 20.9997 3.27083 20.8456 2.9625 20.5372C2.65417 20.2289 2.5 19.8446 2.5 19.3842V8.15347H3.5V19.3842C3.5 19.5637 3.55767 19.7112 3.673 19.8267C3.7885 19.9421 3.936 19.9997 4.1155 19.9997H17V20.9997H4.1155ZM13.5 13.5342L6.5 9.43422V16.3842C6.5 16.5637 6.55767 16.7112 6.673 16.8267C6.7885 16.9421 6.936 16.9997 7.1155 16.9997H19.8845C20.064 16.9997 20.2115 16.9421 20.327 16.8267C20.4423 16.7112 20.5 16.5637 20.5 16.3842V9.43422L13.5 13.5342ZM7.1155 17.9997C6.65517 17.9997 6.27083 17.8456 5.9625 17.5372C5.65417 17.2289 5.5 16.8446 5.5 16.3842V8.69197C5.5 8.4318 5.55033 8.20747 5.651 8.01897C5.75167 7.83047 5.92825 7.6638 6.18075 7.51897L13.5 3.23047L14.4808 3.80922L6.7 8.38822L13.5 12.3882L20.1155 8.50347C20.2757 8.4048 20.4337 8.35647 20.5895 8.35847C20.7452 8.3603 20.8948 8.40222 21.0385 8.48422C21.182 8.56639 21.2948 8.67505 21.377 8.81022C21.459 8.94555 21.5 9.10355 21.5 9.28422V16.3842C21.5 16.8446 21.3458 17.2289 21.0375 17.5372C20.7292 17.8456 20.3448 17.9997 19.8845 17.9997H7.1155ZM13.3077 10.4227L11.2 8.31522L11.9078 7.60747L13.3077 9.00747L16.8577 5.45747L17.5655 6.16522L13.3077 10.4227Z" fill="#74DE9E"/>
</g>
</svg>
