<svg width="83" height="83" viewBox="0 0 83 83" fill="none" xmlns="http://www.w3.org/2000/svg">
<rect x="0.781982" y="0.5" width="82" height="82" rx="8" fill="white"/>
<g clip-path="url(#clip0_534_436)">
<path d="M58.357 42.25V40.75C58.771 40.75 59.107 40.4142 59.107 40V35.5C59.107 35.0858 58.771 34.75 58.357 34.75H54.307L54.1616 34.1866C53.8301 32.898 53.3148 31.6638 52.6315 30.5221L52.3315 30.0204L55.207 27.1398C55.4965 26.8498 55.4965 26.3799 55.207 26.0898L52.0218 22.9C51.8803 22.765 51.6922 22.6897 51.4967 22.6897C51.3011 22.6897 51.113 22.765 50.9715 22.9L48.0908 25.7808L47.5892 25.4808C46.4459 24.7972 45.2102 24.2817 43.9201 23.95L43.357 23.8035V19.75C43.357 19.3358 43.0212 19 42.607 19H38.107C37.6928 19 37.357 19.3358 37.357 19.75V23.8L36.7936 23.9456C35.505 24.277 34.2707 24.792 33.1286 25.4746L32.6267 25.7749L29.7467 22.9C29.6051 22.764 29.4163 22.688 29.2199 22.688C29.0235 22.688 28.8347 22.764 28.693 22.9L25.507 26.0852C25.4376 26.1544 25.3826 26.2366 25.345 26.327C25.3075 26.4175 25.2881 26.5146 25.2881 26.6125C25.2881 26.7105 25.3075 26.8075 25.345 26.898C25.3826 26.9885 25.4376 27.0707 25.507 27.1399L28.3877 30.0203L28.0877 30.5222C27.4045 31.6639 26.8893 32.8981 26.5579 34.1867L26.4107 34.75H22.357C21.9428 34.75 21.607 35.0858 21.607 35.5V40C21.607 40.4142 21.9428 40.75 22.357 40.75V42.25C21.1145 42.25 20.107 41.2425 20.107 40V35.5C20.107 34.2576 21.1145 33.25 22.357 33.25H25.2588C25.5681 32.213 25.9865 31.2117 26.5069 30.2629L24.4444 28.2004C24.0225 27.7794 23.7855 27.2081 23.7855 26.6125C23.7855 26.0169 24.0225 25.4456 24.4444 25.0249L27.6319 21.8374C28.5199 20.9875 29.92 20.9875 30.808 21.8374L32.8699 23.899C33.8188 23.3792 34.8201 22.9613 35.857 22.6525V19.75C35.857 18.5076 36.8645 17.5 38.107 17.5H42.607C43.8494 17.5 44.857 18.5076 44.857 19.75V22.6525C45.894 22.9616 46.8952 23.3798 47.8441 23.8999L49.9066 21.8374C50.7949 20.9875 52.1947 20.9875 53.083 21.8374L56.2699 25.024C56.4786 25.2324 56.6442 25.4798 56.7571 25.7522C56.8701 26.0247 56.9282 26.3167 56.9282 26.6116C56.9282 26.9066 56.8701 27.1986 56.7572 27.4711C56.6442 27.7436 56.4786 27.9911 56.2699 28.1995L54.2074 30.262C54.7273 31.2113 55.1456 32.2129 55.4552 33.25H58.357C59.5994 33.25 60.607 34.2576 60.607 35.5V40C60.607 41.2425 59.5994 42.25 58.357 42.25Z" fill="#50A987"/>
<path d="M50.857 37.75H49.357C49.357 32.7795 45.3275 28.75 40.357 28.75C35.3865 28.75 31.357 32.7795 31.357 37.75H29.857C29.857 31.951 34.558 27.25 40.357 27.25C46.1557 27.25 50.857 31.951 50.857 37.75Z" fill="#50A987"/>
<path d="M40.357 43.75C37.8717 43.75 35.857 41.735 35.857 39.25C35.857 36.7647 37.8717 34.75 40.357 34.75C42.8425 34.75 44.857 36.7647 44.857 39.25C44.8544 41.7344 42.8414 43.7474 40.357 43.75ZM40.357 36.25C38.7002 36.25 37.357 37.5933 37.357 39.25C37.357 40.9068 38.7002 42.25 40.357 42.25C42.0137 42.25 43.357 40.9068 43.357 39.25C43.357 37.5933 42.0137 36.25 40.357 36.25ZM53.107 46.75C50.6217 46.75 48.607 44.735 48.607 42.25C48.607 39.7647 50.6217 37.75 53.107 37.75C55.5923 37.75 57.607 39.7647 57.607 42.25C57.6044 44.7344 55.5914 46.7474 53.107 46.75ZM53.107 39.25C51.4502 39.25 50.107 40.5933 50.107 42.25C50.107 43.9068 51.4502 45.25 53.107 45.25C54.7637 45.25 56.107 43.9068 56.107 42.25C56.107 40.5933 54.7637 39.25 53.107 39.25ZM27.607 46.75C25.1217 46.75 23.107 44.735 23.107 42.25C23.107 39.7647 25.1217 37.75 27.607 37.75C30.0925 37.75 32.107 39.7647 32.107 42.25C32.1044 44.7344 30.0914 46.7474 27.607 46.75ZM27.607 39.25C25.9502 39.25 24.607 40.5933 24.607 42.25C24.607 43.9068 25.9502 45.25 27.607 45.25C29.2637 45.25 30.607 43.9068 30.607 42.25C30.607 40.5933 29.2637 39.25 27.607 39.25Z" fill="#10778E"/>
<path d="M59.9062 48.6742C58.7885 47.9059 57.4633 47.4963 56.107 47.5H50.107C49.7421 47.5033 49.3781 47.5363 49.0186 47.5987C48.5386 46.8482 47.9143 46.2004 47.182 45.693C47.0722 45.61 46.9567 45.5349 46.8362 45.4683C45.787 44.833 44.5835 44.4981 43.357 44.5H37.357C36.2286 44.4961 35.1177 44.7782 34.128 45.3201C33.1382 45.862 32.302 46.646 31.6975 47.5987C31.3373 47.5363 30.9726 47.5033 30.607 47.5H24.607C23.2516 47.4963 21.9271 47.9054 20.8098 48.6728C19.9005 49.2915 19.1561 50.1231 18.6415 51.0951C18.1269 52.0671 17.8576 53.1502 17.857 54.25V57.25C17.8596 59.2979 19.0511 61.1577 20.9112 62.0155C21.5978 62.3389 22.3481 62.5044 23.107 62.5H30.607V61H23.857V52.75H22.357V60.9247C22.0747 60.8681 21.8004 60.777 21.5402 60.6535C20.8896 60.3535 20.3384 59.8737 19.9515 59.2706C19.5647 58.6676 19.3584 57.9665 19.357 57.25V54.25C19.3579 53.3941 19.5679 52.5514 19.9686 51.795C20.3694 51.0387 20.9488 50.3917 21.6565 49.9103C22.5248 49.3145 23.5539 48.997 24.607 49H30.607C30.7391 49 30.8665 49.0141 30.9955 49.0229C30.7417 49.7382 30.6104 50.4911 30.607 51.25V58.75C30.6096 60.8202 32.2871 62.4974 34.357 62.5H36.607V50.5H35.107V61H34.357C33.1145 61 32.107 59.9925 32.107 58.75V51.25C32.107 48.3502 34.4578 46 37.357 46H43.357C44.3219 46.0007 45.2679 46.2678 46.0907 46.7718C46.1668 46.8133 46.2399 46.8601 46.3095 46.9117C47.0123 47.3929 47.589 48.036 47.9912 48.7867C48.3954 49.5449 48.6068 50.3909 48.607 51.25V58.75C48.607 59.9925 47.5994 61 46.357 61H45.607V50.5H44.107V62.5H46.357C48.4271 62.4974 50.1044 60.8202 50.107 58.75V51.25C50.1035 50.4912 49.9724 49.7383 49.7191 49.0229C49.8483 49.0141 49.9757 49 50.107 49H56.107C57.1609 48.9972 58.1907 49.3152 59.0595 49.9117C59.7666 50.3933 60.3454 51.0402 60.7458 51.7962C61.1462 52.5522 61.356 53.3946 61.357 54.25V57.25C61.3557 57.9689 61.1481 58.6722 60.7589 59.2765C60.3696 59.8809 59.8151 60.3608 59.1612 60.6593C58.9051 60.7805 58.635 60.8697 58.357 60.9248V52.75H56.857V61H50.107V62.5H57.607C58.3613 62.5048 59.1071 62.3413 59.7902 62.0213C61.6564 61.1662 62.854 59.3029 62.857 57.25V54.25C62.8564 53.1506 62.5873 52.068 62.073 51.0962C61.5588 50.1245 60.8149 49.2931 59.9062 48.6742Z" fill="#086F8F"/>
<path d="M37.357 61H43.357V62.5H37.357V61Z" fill="#0B7390"/>
</g>
<defs>
<clipPath id="clip0_534_436">
<rect width="48" height="48" fill="white" transform="translate(17.782 17.5)"/>
</clipPath>
</defs>
</svg>
