<svg width="41" height="40" viewBox="0 0 41 40" fill="none" xmlns="http://www.w3.org/2000/svg">
<rect x="0.140625" width="40" height="40" rx="3" fill="white"/>
<path d="M30.5312 30.6533V22.6874C30.5312 18.7724 29.6884 15.7818 25.1209 15.7818C22.9187 15.7818 21.4506 16.978 20.8525 18.1199H20.7981V16.1352H16.4753V30.6533H20.9884V23.4486C20.9884 21.5455 21.3419 19.7239 23.68 19.7239C25.9909 19.7239 26.0181 21.8718 26.0181 23.5574V30.6261H30.5312V30.6533ZM9.13469 16.1352H13.6478V30.6533H9.13469V16.1352ZM11.3913 8.90332C9.95031 8.90332 8.78125 10.0724 8.78125 11.5133C8.78125 12.9543 9.95031 14.1505 11.3913 14.1505C12.8322 14.1505 14.0013 12.9543 14.0013 11.5133C14.0013 10.0724 12.8322 8.90332 11.3913 8.90332Z" fill="url(#paint0_linear_203_997)"/>
<defs>
<linearGradient id="paint0_linear_203_997" x1="19.6563" y1="8.90332" x2="19.6563" y2="30.6533" gradientUnits="userSpaceOnUse">
<stop stop-color="#5FBA8D"/>
<stop offset="1" stop-color="#066D8B"/>
</linearGradient>
</defs>
</svg>
