<svg width="24" height="25" viewBox="0 0 24 25" fill="none" xmlns="http://www.w3.org/2000/svg">
<mask id="mask0_313_2110" style="mask-type:alpha" maskUnits="userSpaceOnUse" x="0" y="0" width="24" height="25">
<rect y="0.5" width="24" height="24" fill="#D9D9D9"/>
</mask>
<g mask="url(#mask0_313_2110)">
<path d="M4 21.5C3.45 21.5 2.97917 21.3042 2.5875 20.9125C2.19583 20.5208 2 20.05 2 19.5V8.5C2 7.95 2.19583 7.47917 2.5875 7.0875C2.97917 6.69583 3.45 6.5 4 6.5H8V4.5C8 3.95 8.19583 3.47917 8.5875 3.0875C8.97917 2.69583 9.45 2.5 10 2.5H14C14.55 2.5 15.0208 2.69583 15.4125 3.0875C15.8042 3.47917 16 3.95 16 4.5V6.5H20C20.55 6.5 21.0208 6.69583 21.4125 7.0875C21.8042 7.47917 22 7.95 22 8.5V19.5C22 20.05 21.8042 20.5208 21.4125 20.9125C21.0208 21.3042 20.55 21.5 20 21.5H4ZM10 6.5H14V4.5H10V6.5Z" fill="#5FBA8D"/>
</g>
</svg>
