<svg width="65" height="65" viewBox="0 0 65 65" fill="none" xmlns="http://www.w3.org/2000/svg">
<g clip-path="url(#clip0_171_297)">
<path d="M18.4487 37.4701C18.8785 35.8693 19.733 34.2145 20.9556 33.0836C23.2433 30.9675 24.6756 27.9401 24.6756 24.5781C24.6756 18.1512 19.4418 12.9468 13.004 12.9945C6.63459 13.0416 1.46409 18.2902 1.50809 24.6596C1.53097 27.9768 2.94822 30.9627 5.20297 33.0606C6.44559 34.2167 7.31772 35.9043 7.74772 37.531M13.0916 17.1263V18.6316M18.7617 19.645L17.798 20.8012M7.42159 19.645L8.38534 20.8012M17.7472 42.4101H8.43609C8.16703 42.4101 7.90899 42.3032 7.71873 42.113C7.52848 41.9227 7.42159 41.6647 7.42159 41.3956V38.7335C7.42159 38.173 7.87534 37.7187 8.43572 37.719C10.5888 37.7201 15.5952 37.7203 17.7478 37.7203C18.3081 37.7203 18.7615 38.1746 18.7615 38.7348V41.3956C18.7615 41.5288 18.7353 41.6607 18.6844 41.7838C18.6334 41.9069 18.5587 42.0188 18.4645 42.113C18.3703 42.2072 18.2585 42.2819 18.1354 42.3329C18.0124 42.3839 17.8804 42.4101 17.7472 42.4101Z" stroke="#5FBA8D" stroke-width="1.875" stroke-miterlimit="10" stroke-linecap="round" stroke-linejoin="round"/>
<path d="M26.621 3.61463V7.22288M28.4252 5.41875H24.8168M57.5792 42.7633V46.3715M59.3834 44.5674H55.775M23.7104 47.1976C21.7626 45.9539 20.0609 44.3616 18.6907 42.5005M51.9464 27.1434C52.2757 28.549 52.4416 29.988 52.4407 31.4317C52.4407 37.3694 49.6718 42.6603 45.3549 46.0836M25.1979 14.81C27.7609 13.4885 30.6689 12.7423 33.7513 12.7423C35.2749 12.7423 36.756 12.9246 38.1739 13.2686M13.799 22.7837L14.588 24.4501C14.644 24.5683 14.7288 24.6705 14.8346 24.7474C14.9404 24.8243 15.0638 24.8733 15.1935 24.89L17.0222 25.1254C17.6752 25.2095 17.9368 26.0146 17.4579 26.4665L16.1169 27.7317C16.0218 27.8215 15.9508 27.9337 15.9104 28.0581C15.87 28.1825 15.8615 28.315 15.8857 28.4435L16.2268 30.2554C16.3487 30.9024 15.6637 31.4 15.0859 31.0842L13.4682 30.1999C13.3534 30.1371 13.2248 30.1043 13.094 30.1043C12.9632 30.1043 12.8345 30.1371 12.7198 30.1999L11.102 31.0842C10.5244 31.4 9.83942 30.9024 9.96117 30.2554L10.3023 28.4435C10.3265 28.315 10.318 28.1825 10.2776 28.0581C10.2371 27.9337 10.1661 27.8215 10.071 27.7317L8.73004 26.4665C8.25117 26.0146 8.51279 25.2095 9.16579 25.1254L10.9944 24.89C11.1241 24.8733 11.2476 24.8243 11.3534 24.7474C11.4592 24.6705 11.5439 24.5683 11.5999 24.4501L12.3889 22.7837C12.6707 22.1887 13.5173 22.1887 13.799 22.7837ZM14.4373 46.0821H11.7507C9.94679 46.0821 8.48454 44.6199 8.48454 42.816V42.41H17.7034V42.816C17.7034 44.6198 16.2412 46.0821 14.4373 46.0821ZM62.7728 11.5476H62.4862C62.1103 11.5476 61.7828 11.3025 61.6644 10.9459C61.4956 10.4371 61.2898 9.94139 61.0488 9.46263C60.8795 9.12638 60.9377 8.72075 61.2038 8.45463L61.4073 8.25113C61.4874 8.17107 61.5509 8.07602 61.5942 7.97141C61.6376 7.8668 61.6599 7.75467 61.6599 7.64144C61.6599 7.5282 61.6376 7.41608 61.5942 7.31147C61.5509 7.20686 61.4874 7.11181 61.4073 7.03175L58.5408 4.16525C58.4607 4.08517 58.3657 4.02165 58.2611 3.97831C58.1565 3.93497 58.0443 3.91267 57.9311 3.91267C57.8179 3.91267 57.7057 3.93497 57.6011 3.97831C57.4965 4.02165 57.4015 4.08517 57.3214 4.16525L57.1179 4.36875C56.8518 4.63488 56.446 4.69288 56.1099 4.52375C55.6311 4.2827 55.1353 4.07694 54.6265 3.90813C54.2698 3.78975 54.0248 3.46225 54.0248 3.08638V2.79975C54.0248 2.57107 53.9339 2.35175 53.7722 2.19005C53.6105 2.02834 53.3912 1.9375 53.1625 1.9375H49.1087C48.88 1.9375 48.6607 2.02834 48.499 2.19005C48.3373 2.35175 48.2464 2.57107 48.2464 2.79975V3.08638C48.2464 3.46225 48.0014 3.78975 47.6447 3.90813C47.1359 4.07697 46.6402 4.28272 46.1614 4.52375C45.8252 4.693 45.4195 4.63488 45.1534 4.36875L44.9499 4.16525C44.8699 4.08517 44.7748 4.02165 44.6702 3.97831C44.5656 3.93497 44.4535 3.91267 44.3402 3.91267C44.227 3.91267 44.1149 3.93497 44.0103 3.97831C43.9056 4.02165 43.8106 4.08517 43.7305 4.16525L40.864 7.03175C40.784 7.11181 40.7204 7.20686 40.6771 7.31147C40.6338 7.41608 40.6115 7.5282 40.6115 7.64144C40.6115 7.75467 40.6338 7.8668 40.6771 7.97141C40.7204 8.07602 40.784 8.17107 40.864 8.25113L41.0675 8.45463C41.3337 8.72075 41.3917 9.12638 41.2225 9.46263C40.9815 9.9414 40.7758 10.4371 40.6069 10.9459C40.4885 11.3026 40.161 11.5476 39.7852 11.5476H39.4985C39.2699 11.5476 39.0505 11.6385 38.8888 11.8002C38.7271 11.9619 38.6363 12.1812 38.6363 12.4099V16.4637C38.6363 16.577 38.6586 16.6891 38.7019 16.7937C38.7453 16.8983 38.8088 16.9934 38.8888 17.0735C38.9689 17.1535 39.064 17.217 39.1686 17.2604C39.2732 17.3037 39.3853 17.326 39.4985 17.326H39.7852C40.161 17.326 40.4885 17.571 40.6069 17.9278C40.7758 18.4365 40.9815 18.9322 41.2225 19.411C41.3918 19.7472 41.3337 20.1529 41.0675 20.419L40.864 20.6225C40.784 20.7026 40.7204 20.7976 40.6771 20.9022C40.6338 21.0068 40.6115 21.119 40.6115 21.2322C40.6115 21.3454 40.6338 21.4575 40.6771 21.5622C40.7204 21.6668 40.784 21.7618 40.864 21.8419L43.7305 24.7084C43.8106 24.7885 43.9056 24.852 44.0103 24.8953C44.1149 24.9387 44.227 24.961 44.3402 24.961C44.4535 24.961 44.5656 24.9387 44.6702 24.8953C44.7748 24.852 44.8699 24.7885 44.9499 24.7084L45.1534 24.5049C45.4195 24.2387 45.8253 24.1807 46.1614 24.3499C46.6402 24.5909 47.1359 24.7967 47.6447 24.9655C48.0014 25.0839 48.2464 25.4114 48.2464 25.7872V26.0739C48.2464 26.3026 48.3373 26.5219 48.499 26.6836C48.6607 26.8453 48.88 26.9361 49.1087 26.9361H53.1625C53.3912 26.9361 53.6105 26.8453 53.7722 26.6836C53.9339 26.5219 54.0248 26.3026 54.0248 26.0739V25.7872C54.0248 25.4114 54.2699 25.0839 54.6265 24.9655C55.1353 24.7967 55.631 24.5909 56.1098 24.3499C56.446 24.1806 56.8517 24.2387 57.1178 24.5049L57.3213 24.7084C57.4013 24.7885 57.4964 24.852 57.601 24.8953C57.7056 24.9387 57.8177 24.961 57.931 24.961C58.0442 24.961 58.1563 24.9387 58.2609 24.8953C58.3656 24.852 58.4606 24.7885 58.5407 24.7084L61.4072 21.8419C61.4872 21.7618 61.5508 21.6668 61.5941 21.5622C61.6374 21.4575 61.6597 21.3454 61.6597 21.2322C61.6597 21.119 61.6374 21.0068 61.5941 20.9022C61.5508 20.7976 61.4872 20.7026 61.4072 20.6225L61.2037 20.419C60.9375 20.1529 60.8795 19.7472 61.0487 19.411C61.2897 18.9322 61.4954 18.4365 61.6643 17.9278C61.7827 17.571 62.1102 17.326 62.486 17.326H62.7727C63.0013 17.326 63.2207 17.2352 63.3824 17.0735C63.5441 16.9117 63.6349 16.6924 63.6349 16.4637V12.4099C63.6349 12.2966 63.6127 12.1845 63.5694 12.0799C63.526 11.9753 63.4625 11.8802 63.3825 11.8001C63.3024 11.7201 63.2074 11.6566 63.1028 11.6132C62.9981 11.5699 62.886 11.5476 62.7728 11.5476ZM51.1357 19.6157C48.2753 19.6157 45.9567 17.297 45.9567 14.4368C45.9567 11.5764 48.2754 9.25775 51.1357 9.25775C53.9959 9.25775 56.3147 11.5765 56.3147 14.4368C56.3147 17.297 53.9959 19.6157 51.1357 19.6157ZM40.0449 34.1544H29.1752C28.4594 34.1544 27.8792 33.5741 27.8792 32.8584V29.4627C27.8792 28.747 28.4594 28.1667 29.1752 28.1667H40.0449C40.7607 28.1667 41.3409 28.747 41.3409 29.4627V32.8584C41.341 33.5741 40.7608 34.1544 40.0449 34.1544Z" stroke="#5FBA8D" stroke-width="1.875" stroke-miterlimit="10" stroke-linecap="round" stroke-linejoin="round"/>
<path d="M31.7182 63.1072H49.2361C52.5574 63.1072 54.4652 59.3275 52.4926 56.6554L42.8252 43.5603C41.0653 41.1765 40.1158 38.2915 40.1158 35.3284V34.1543H29.1011V35.3284C29.1011 38.2914 28.1515 41.1765 26.3917 43.5603L16.7243 56.6554C14.7517 59.3275 16.6593 63.1072 19.9808 63.1072H27.2113" stroke="#086F8B" stroke-width="1.875" stroke-miterlimit="10" stroke-linecap="round" stroke-linejoin="round"/>
<path d="M21.2811 57.6311C20.9052 58.1403 21.2687 58.8605 21.9016 58.8605H47.3114C47.9443 58.8605 48.3078 58.1403 47.9319 57.6311L45.7499 54.6755H23.4629L21.2811 57.6311ZM39.7372 46.5309C39.6655 46.4338 39.572 46.3548 39.4642 46.3004C39.3564 46.2461 39.2374 46.2177 39.1167 46.2178H30.0962C29.8513 46.2178 29.6211 46.334 29.4757 46.531L26.6174 50.4028H42.5956L39.7372 46.5309Z" stroke="#086F8B" stroke-width="1.875" stroke-miterlimit="10" stroke-linecap="round" stroke-linejoin="round"/>
<path d="M26.6193 50.4023L23.4648 54.6752H45.7518L42.5975 50.4023H26.6193Z" stroke="#086F8B" stroke-width="1.875" stroke-miterlimit="10" stroke-linecap="round" stroke-linejoin="round"/>
</g>
<defs>
<clipPath id="clip0_171_297">
<rect width="64" height="64" fill="white" transform="translate(0.570312 0.522461)"/>
</clipPath>
</defs>
</svg>
