<svg width="20" height="20" viewBox="0 0 20 20" fill="none" xmlns="http://www.w3.org/2000/svg">
<path d="M19.7896 19.2736V12.48C19.7896 9.14121 19.0309 6.59073 14.9192 6.59073C12.9367 6.59073 11.6151 7.61092 11.0767 8.58474H11.0277V6.89215H7.13633V19.2736H11.1991V13.1292C11.1991 11.5062 11.5172 9.95273 13.622 9.95273C15.7024 9.95273 15.7268 11.7844 15.7268 13.222V19.2504H19.7896V19.2736ZM0.52825 6.89215H4.59099V19.2736H0.52825V6.89215ZM2.55962 0.724609C1.26248 0.724609 0.210083 1.72162 0.210083 2.95049C0.210083 4.17936 1.26248 5.19955 2.55962 5.19955C3.85676 5.19955 4.90916 4.17936 4.90916 2.95049C4.90916 1.72162 3.85676 0.724609 2.55962 0.724609Z" fill="white"/>
</svg>
