<svg width="18" height="17" viewBox="0 0 18 17" fill="none" xmlns="http://www.w3.org/2000/svg">
<path d="M15.9254 14.7412V10.0504C15.9254 7.74506 15.4015 5.98401 12.5625 5.98401C11.1937 5.98401 10.2812 6.68843 9.90939 7.36083H9.87559V6.19213H7.18865V14.7412H9.99388V10.4987C9.99388 9.37803 10.2136 8.30539 11.6669 8.30539C13.1033 8.30539 13.1202 9.57014 13.1202 10.5627V14.7252H15.9254V14.7412ZM2.62594 6.19213H5.43116V14.7412H2.62594V6.19213ZM4.02855 1.93359C3.13291 1.93359 2.40625 2.622 2.40625 3.47051C2.40625 4.31902 3.13291 5.02343 4.02855 5.02343C4.92419 5.02343 5.65085 4.31902 5.65085 3.47051C5.65085 2.622 4.92419 1.93359 4.02855 1.93359Z" fill="white"/>
</svg>
