<svg width="40" height="39" viewBox="0 0 40 39" fill="none" xmlns="http://www.w3.org/2000/svg">
<path d="M34.1023 25.4118L35.373 35.5349C35.4816 36.3999 34.8073 37.1641 33.9356 37.1641H5.34744C4.47574 37.1641 3.80135 36.3999 3.90993 35.5349L5.71933 21.12C5.81031 20.3954 6.42645 19.8517 7.15683 19.8517H10.8408" stroke="white" stroke-miterlimit="10" stroke-linecap="round" stroke-linejoin="round"/>
<path d="M28.4375 19.8517H32.1214C32.8517 19.8517 33.4679 20.3953 33.5588 21.12L33.7796 22.8789" stroke="white" stroke-miterlimit="10" stroke-linecap="round" stroke-linejoin="round"/>
<path d="M8.89062 23.2197L8.94119 19.8522" stroke="white" stroke-miterlimit="10" stroke-linecap="round" stroke-linejoin="round"/>
<path d="M4.71875 29.0879H8.44851C8.64626 29.0879 8.80779 28.9293 8.81069 28.7315L8.85531 25.7558" stroke="white" stroke-miterlimit="10" stroke-linecap="round" stroke-linejoin="round"/>
<path d="M16.4528 32.5645H4.28125" stroke="white" stroke-miterlimit="10" stroke-linecap="round" stroke-linejoin="round"/>
<path d="M26.3005 37.1641V32.9265C26.3005 32.7266 26.1382 32.5643 25.9383 32.5643H18.9844" stroke="white" stroke-miterlimit="10" stroke-linecap="round" stroke-linejoin="round"/>
<path d="M35.0024 32.5643H30.2919C30.0919 32.5643 29.9297 32.7266 29.9297 32.9265V37.1641" stroke="white" stroke-miterlimit="10" stroke-linecap="round" stroke-linejoin="round"/>
<path d="M21.1562 29.0869H34.56" stroke="white" stroke-miterlimit="10" stroke-linecap="round" stroke-linejoin="round"/>
<path d="M12.5715 22.7497L12.4375 28.7199C12.4368 28.7679 12.4457 28.8156 12.4636 28.8602C12.4814 28.9048 12.508 28.9454 12.5417 28.9796C12.5754 29.0139 12.6156 29.0411 12.6598 29.0596C12.7041 29.0782 12.7517 29.0878 12.7997 29.0879H18.1268" stroke="white" stroke-miterlimit="10" stroke-linecap="round" stroke-linejoin="round"/>
<path d="M13.9929 2.75787C15.6022 1.74593 17.5196 1.16456 19.6399 1.16456C25.9092 1.16456 30.4049 6.24685 30.4049 12.5162C30.4049 21.2527 21.0955 29.2551 19.783 30.2703C19.7421 30.3021 19.6917 30.3193 19.6399 30.3193C19.5881 30.3193 19.5378 30.3021 19.4969 30.2703C18.1843 29.2551 8.875 21.2527 8.875 12.5162" stroke="white" stroke-miterlimit="10" stroke-linecap="round" stroke-linejoin="round"/>
<path d="M8.875 12.5156C8.875 9.33798 10.0299 6.46529 11.9854 4.40469" stroke="white" stroke-miterlimit="10" stroke-linecap="round" stroke-linejoin="round"/>
<path d="M24.0171 12.5149C24.0171 14.9315 22.058 16.8906 19.6414 16.8906C17.2247 16.8906 15.2656 14.9315 15.2656 12.5149C15.2656 10.0982 17.2247 8.13915 19.6414 8.13915C22.058 8.13915 24.0171 10.0982 24.0171 12.5149Z" stroke="white" stroke-miterlimit="10" stroke-linecap="round" stroke-linejoin="round"/>
</svg>
