<svg width="114" height="27" viewBox="0 0 114 27" fill="none" xmlns="http://www.w3.org/2000/svg">
<mask id="path-1-outside-1_313_293" maskUnits="userSpaceOnUse" x="1.65039" y="-0.703125" width="29" height="28" fill="black">
<rect fill="white" x="1.65039" y="-0.703125" width="29" height="28"/>
<path d="M3.24239 26.2969V0.988875H6.69839L16.9584 17.4049H14.9784L25.2024 0.988875H28.6584V26.2969H23.7984V9.37687L24.7344 9.66487L17.6064 21.1129H14.2944L7.16639 9.66487L8.13839 9.37687V26.2969H3.24239Z"/>
</mask>
<path d="M3.24239 26.2969H2.24239V27.2969H3.24239V26.2969ZM3.24239 0.988875V-0.0111253H2.24239V0.988875H3.24239ZM6.69839 0.988875L7.54639 0.458876L7.25264 -0.0111253H6.69839V0.988875ZM16.9584 17.4049V18.4049H18.7626L17.8064 16.8749L16.9584 17.4049ZM14.9784 17.4049L14.1296 16.8762L13.1775 18.4049H14.9784V17.4049ZM25.2024 0.988875V-0.0111253H24.6471L24.3536 0.460215L25.2024 0.988875ZM28.6584 0.988875H29.6584V-0.0111253H28.6584V0.988875ZM28.6584 26.2969V27.2969H29.6584V26.2969H28.6584ZM23.7984 26.2969H22.7984V27.2969H23.7984V26.2969ZM23.7984 9.37687L24.0925 8.42109L22.7984 8.02291V9.37687H23.7984ZM24.7344 9.66488L25.5833 10.1934L26.2697 9.09101L25.0285 8.7091L24.7344 9.66488ZM17.6064 21.1129V22.1129H18.1617L18.4553 21.6414L17.6064 21.1129ZM14.2944 21.1129L13.4455 21.6414L13.739 22.1129H14.2944V21.1129ZM7.16639 9.66488L6.8823 8.70608L5.62362 9.07902L6.31749 10.1934L7.16639 9.66488ZM8.13839 9.37687H9.13839V8.0376L7.8543 8.41808L8.13839 9.37687ZM8.13839 26.2969V27.2969H9.13839V26.2969H8.13839ZM4.24239 26.2969V0.988875H2.24239V26.2969H4.24239ZM3.24239 1.98887H6.69839V-0.0111253H3.24239V1.98887ZM5.85039 1.51887L16.1104 17.9349L17.8064 16.8749L7.54639 0.458876L5.85039 1.51887ZM16.9584 16.4049H14.9784V18.4049H16.9584V16.4049ZM15.8272 17.9335L26.0512 1.51753L24.3536 0.460215L14.1296 16.8762L15.8272 17.9335ZM25.2024 1.98887H28.6584V-0.0111253H25.2024V1.98887ZM27.6584 0.988875V26.2969H29.6584V0.988875H27.6584ZM28.6584 25.2969H23.7984V27.2969H28.6584V25.2969ZM24.7984 26.2969V9.37687H22.7984V26.2969H24.7984ZM23.5043 10.3327L24.4403 10.6207L25.0285 8.7091L24.0925 8.42109L23.5043 10.3327ZM23.8855 9.13632L16.7575 20.5843L18.4553 21.6414L25.5833 10.1934L23.8855 9.13632ZM17.6064 20.1129H14.2944V22.1129H17.6064V20.1129ZM15.1433 20.5843L8.01529 9.13632L6.31749 10.1934L13.4455 21.6414L15.1433 20.5843ZM7.45048 10.6237L8.42248 10.3357L7.8543 8.41808L6.8823 8.70608L7.45048 10.6237ZM7.13839 9.37687V26.2969H9.13839V9.37687H7.13839ZM8.13839 25.2969H3.24239V27.2969H8.13839V25.2969Z" fill="url(#paint0_linear_313_293)" mask="url(#path-1-outside-1_313_293)"/>
<mask id="path-3-outside-2_313_293" maskUnits="userSpaceOnUse" x="48.6504" y="-0.703125" width="26" height="28" fill="black">
<rect fill="white" x="48.6504" y="-0.703125" width="26" height="28"/>
<path d="M65.5424 26.2969L54.5624 13.0849L65.2544 0.988875H71.3744L59.4584 14.1289V11.8609L71.7704 26.2969H65.5424ZM50.2424 26.2969V0.988875H55.1384V26.2969H50.2424Z"/>
</mask>
<path d="M65.5424 26.2969L64.7733 26.936L65.0732 27.2969H65.5424V26.2969ZM54.5624 13.0849L53.8131 12.4226L53.2455 13.0648L53.7933 13.724L54.5624 13.0849ZM65.2544 0.988875V-0.0111253H64.8037L64.5051 0.32659L65.2544 0.988875ZM71.3744 0.988875L72.1152 1.66064L73.6312 -0.0111253H71.3744V0.988875ZM59.4584 14.1289H58.4584V16.7202L60.1992 14.8006L59.4584 14.1289ZM59.4584 11.8609L60.2193 11.212L58.4584 9.14732V11.8609H59.4584ZM71.7704 26.2969V27.2969H73.9376L72.5313 25.648L71.7704 26.2969ZM50.2424 26.2969H49.2424V27.2969H50.2424V26.2969ZM50.2424 0.988875V-0.0111253H49.2424V0.988875H50.2424ZM55.1384 0.988875H56.1384V-0.0111253H55.1384V0.988875ZM55.1384 26.2969V27.2969H56.1384V26.2969H55.1384ZM66.3115 25.6577L55.3315 12.4457L53.7933 13.724L64.7733 26.936L66.3115 25.6577ZM55.3116 13.7472L66.0036 1.65116L64.5051 0.32659L53.8131 12.4226L55.3116 13.7472ZM65.2544 1.98887H71.3744V-0.0111253H65.2544V1.98887ZM70.6336 0.317111L58.7176 13.4571L60.1992 14.8006L72.1152 1.66064L70.6336 0.317111ZM60.4584 14.1289V11.8609H58.4584V14.1289H60.4584ZM58.6975 12.5098L71.0095 26.9458L72.5313 25.648L60.2193 11.212L58.6975 12.5098ZM71.7704 25.2969H65.5424V27.2969H71.7704V25.2969ZM51.2424 26.2969V0.988875H49.2424V26.2969H51.2424ZM50.2424 1.98887H55.1384V-0.0111253H50.2424V1.98887ZM54.1384 0.988875V26.2969H56.1384V0.988875H54.1384ZM55.1384 25.2969H50.2424V27.2969H55.1384V25.2969Z" fill="url(#paint1_linear_313_293)" mask="url(#path-3-outside-2_313_293)"/>
<mask id="path-5-outside-3_313_293" maskUnits="userSpaceOnUse" x="88.6504" y="-0.703125" width="26" height="29" fill="black">
<rect fill="white" x="88.6504" y="-0.703125" width="26" height="29"/>
<path d="M102.978 26.6569C101.13 26.6569 99.4144 26.3329 97.8304 25.6849C96.2464 25.0129 94.8544 24.0889 93.6544 22.9129C92.4784 21.7129 91.5664 20.3209 90.9184 18.7369C90.2944 17.1529 89.9824 15.4489 89.9824 13.6249C89.9824 11.8009 90.2944 10.0969 90.9184 8.51287C91.5664 6.92887 92.4784 5.54887 93.6544 4.37287C94.8544 3.19687 96.2344 2.27287 97.7944 1.60087C99.3784 0.928873 101.106 0.592873 102.978 0.592873C104.994 0.592873 106.77 0.928873 108.306 1.60087C109.842 2.24887 111.198 3.14887 112.374 4.30087L109.062 7.61287C108.366 6.84487 107.514 6.24487 106.506 5.81287C105.498 5.38087 104.322 5.16487 102.978 5.16487C101.802 5.16487 100.722 5.36887 99.7384 5.77687C98.7784 6.16087 97.9384 6.73687 97.2184 7.50487C96.4984 8.24887 95.9464 9.14887 95.5624 10.2049C95.1784 11.2369 94.9864 12.3769 94.9864 13.6249C94.9864 14.8969 95.1784 16.0489 95.5624 17.0809C95.9464 18.1129 96.4984 19.0129 97.2184 19.7809C97.9384 20.5249 98.7784 21.1009 99.7384 21.5089C100.722 21.9169 101.802 22.1209 102.978 22.1209C104.394 22.1209 105.606 21.9049 106.614 21.4729C107.646 21.0409 108.51 20.4289 109.206 19.6369L112.518 22.9489C111.342 24.1249 109.974 25.0369 108.414 25.6849C106.854 26.3329 105.042 26.6569 102.978 26.6569Z"/>
</mask>
<path d="M97.8304 25.6849L97.4398 26.6055L97.4518 26.6104L97.8304 25.6849ZM93.6544 22.9129L92.9402 23.6128L92.9472 23.62L92.9545 23.6271L93.6544 22.9129ZM90.9184 18.7369L89.9879 19.1034L89.9928 19.1155L90.9184 18.7369ZM90.9184 8.51287L89.9928 8.13421L89.988 8.14635L90.9184 8.51287ZM93.6544 4.37287L92.9544 3.65862L92.9473 3.66577L93.6544 4.37287ZM97.7944 1.60087L97.4038 0.680277L97.3988 0.682461L97.7944 1.60087ZM108.306 1.60087L107.906 2.51711L107.918 2.52224L108.306 1.60087ZM112.374 4.30087L113.081 5.00798L113.796 4.29355L113.074 3.58652L112.374 4.30087ZM109.062 7.61287L108.321 8.28439L109.027 9.06272L109.769 8.31998L109.062 7.61287ZM106.506 5.81287L106.112 6.73202L106.506 5.81287ZM99.7384 5.77687L100.11 6.70542L100.121 6.70062L99.7384 5.77687ZM97.2184 7.50487L97.937 8.2003L97.9425 8.1946L97.9479 8.18882L97.2184 7.50487ZM95.5624 10.2049L96.4996 10.5536L96.5022 10.5466L95.5624 10.2049ZM95.5624 17.0809L94.6252 17.4296L95.5624 17.0809ZM97.2184 19.7809L96.4889 20.4648L96.4943 20.4706L96.4998 20.4763L97.2184 19.7809ZM99.7384 21.5089L99.3472 22.4292L99.3554 22.4326L99.7384 21.5089ZM106.614 21.4729L106.228 20.5504L106.22 20.5537L106.614 21.4729ZM109.206 19.6369L109.913 18.9298L109.159 18.1756L108.455 18.9768L109.206 19.6369ZM112.518 22.9489L113.225 23.656L113.933 22.9489L113.225 22.2418L112.518 22.9489ZM108.414 25.6849L108.798 26.6084L108.414 25.6849ZM102.978 25.6569C101.25 25.6569 99.6635 25.3544 98.209 24.7593L97.4518 26.6104C99.1652 27.3114 101.011 27.6569 102.978 27.6569V25.6569ZM98.2209 24.7643C96.7492 24.1399 95.4628 23.285 94.3543 22.1987L92.9545 23.6271C94.2459 24.8927 95.7435 25.8858 97.4398 26.6055L98.2209 24.7643ZM94.3686 22.2129C93.2849 21.1071 92.4439 19.8248 91.8439 18.3582L89.9928 19.1155C90.6889 20.817 91.6719 22.3186 92.9402 23.6128L94.3686 22.2129ZM91.8488 18.3703C91.274 16.9112 90.9824 15.3324 90.9824 13.6249H88.9824C88.9824 15.5653 89.3148 17.3946 89.988 19.1034L91.8488 18.3703ZM90.9824 13.6249C90.9824 11.9173 91.274 10.3386 91.8488 8.8794L89.988 8.14635C89.3148 9.8552 88.9824 11.6844 88.9824 13.6249H90.9824ZM91.8439 8.89151C92.4432 7.42677 93.2821 6.15933 94.3615 5.07998L92.9473 3.66577C91.6746 4.93842 90.6896 6.43098 89.9928 8.13424L91.8439 8.89151ZM94.3543 5.08709C95.4653 3.99828 96.7419 3.14309 98.19 2.51929L97.3988 0.682461C95.7269 1.40265 94.2434 2.39547 92.9545 3.65866L94.3543 5.08709ZM98.1849 2.52146C99.6349 1.90632 101.229 1.59287 102.978 1.59287V-0.407127C100.984 -0.407127 99.1219 -0.0485739 97.4038 0.680291L98.1849 2.52146ZM102.978 1.59287C104.884 1.59287 106.519 1.91034 107.906 2.51703L108.707 0.684716C107.022 -0.0525949 105.105 -0.407127 102.978 -0.407127V1.59287ZM107.918 2.52224C109.339 3.12203 110.59 3.9523 111.675 5.01523L113.074 3.58652C111.807 2.34545 110.345 1.37572 108.695 0.679509L107.918 2.52224ZM111.667 3.59377L108.355 6.90577L109.769 8.31998L113.081 5.00798L111.667 3.59377ZM109.803 6.94135C109.005 6.06068 108.033 5.37901 106.9 4.89373L106.112 6.73202C106.996 7.11074 107.728 7.62907 108.321 8.28439L109.803 6.94135ZM106.9 4.89373C105.743 4.3978 104.428 4.16487 102.978 4.16487V6.16487C104.217 6.16487 105.254 6.36395 106.112 6.73202L106.9 4.89373ZM102.978 4.16487C101.685 4.16487 100.473 4.38979 99.3554 4.85313L100.121 6.70062C100.972 6.34796 101.92 6.16487 102.978 6.16487V4.16487ZM99.367 4.8484C98.2686 5.28774 97.307 5.9482 96.4889 6.82093L97.9479 8.18882C98.5697 7.52554 99.2881 7.03401 100.11 6.70535L99.367 4.8484ZM96.4998 6.80945C95.6739 7.66286 95.0505 8.6864 94.6226 9.86313L96.5022 10.5466C96.8423 9.61134 97.3229 8.83489 97.937 8.2003L96.4998 6.80945ZM94.6252 9.85614C94.1945 11.0136 93.9864 12.2735 93.9864 13.6249H95.9864C95.9864 12.4802 96.1623 11.4602 96.4996 10.5536L94.6252 9.85614ZM93.9864 13.6249C93.9864 14.9977 94.1937 16.2702 94.6252 17.4296L96.4996 16.7321C96.163 15.8276 95.9864 14.796 95.9864 13.6249H93.9864ZM94.6252 17.4296C95.0533 18.5802 95.6739 19.5955 96.4889 20.4648L97.9479 19.0969C97.3229 18.4302 96.8395 17.6456 96.4996 16.7321L94.6252 17.4296ZM96.4998 20.4763C97.3135 21.3172 98.2651 21.9693 99.3473 22.4292L100.13 20.5885C99.2917 20.2325 98.5633 19.7326 97.937 19.0855L96.4998 20.4763ZM99.3554 22.4326C100.473 22.896 101.685 23.1209 102.978 23.1209V21.1209C101.92 21.1209 100.972 20.9378 100.121 20.5851L99.3554 22.4326ZM102.978 23.1209C104.492 23.1209 105.845 22.8905 107.008 22.392L106.22 20.5537C105.368 20.9193 104.297 21.1209 102.978 21.1209V23.1209ZM107.001 22.3953C108.164 21.9084 109.155 21.2099 109.958 20.297L108.455 18.9768C107.866 19.6478 107.129 20.1734 106.228 20.5504L107.001 22.3953ZM108.499 20.344L111.811 23.656L113.225 22.2418L109.913 18.9298L108.499 20.344ZM111.811 22.2418C110.729 23.3237 109.472 24.1628 108.031 24.7614L108.798 26.6084C110.477 25.9109 111.955 24.9261 113.225 23.656L111.811 22.2418ZM108.031 24.7614C106.616 25.349 104.939 25.6569 102.978 25.6569V27.6569C105.146 27.6569 107.093 27.3167 108.798 26.6084L108.031 24.7614Z" fill="url(#paint2_linear_313_293)" mask="url(#path-5-outside-3_313_293)"/>
<defs>
<linearGradient id="paint0_linear_313_293" x1="16.1504" y1="1.29687" x2="16.1504" y2="24.7852" gradientUnits="userSpaceOnUse">
<stop stop-color="#066D8B"/>
<stop offset="1" stop-color="#5FBA8D"/>
</linearGradient>
<linearGradient id="paint1_linear_313_293" x1="60.1504" y1="1.29687" x2="60.1504" y2="24.7852" gradientUnits="userSpaceOnUse">
<stop stop-color="#066D8B"/>
<stop offset="1" stop-color="#5FBA8D"/>
</linearGradient>
<linearGradient id="paint2_linear_313_293" x1="101.15" y1="1.29687" x2="101.15" y2="24.7852" gradientUnits="userSpaceOnUse">
<stop stop-color="#066D8B"/>
<stop offset="1" stop-color="#5FBA8D"/>
</linearGradient>
</defs>
</svg>
