<svg width="17" height="17" viewBox="0 0 17 17" fill="none" xmlns="http://www.w3.org/2000/svg">
<g clip-path="url(#clip0_219_9095)">
<path d="M8.00121 1.1214C8.27593 1.30356 8.72546 1.30356 8.99978 1.1214L9.72521 0.639404C9.99978 0.456998 10.3687 0.535717 10.5453 0.814123L11.0119 1.55003C11.1885 1.82828 11.5989 2.011 11.9238 1.95603L12.7827 1.8105C13.1077 1.75547 13.4132 1.97712 13.461 2.30322L13.5884 3.16362C13.6367 3.48978 13.937 3.82418 14.2564 3.90643L15.0992 4.12381C15.4187 4.20637 15.6072 4.53372 15.5185 4.85118L15.2851 5.68765C15.1964 6.00509 15.3351 6.43268 15.5934 6.63765L16.2775 7.18037C16.5358 7.38534 16.575 7.76062 16.3648 8.01478L15.8094 8.68525C15.5993 8.93915 15.5523 9.38606 15.7049 9.67822L16.1083 10.4493C16.2609 10.7417 16.1445 11.1007 15.8492 11.2472L15.069 11.6345C14.7737 11.7812 14.5492 12.1704 14.5698 12.4994L14.6237 13.368C14.6446 13.6968 14.3917 13.9777 14.0622 13.9917L13.1924 14.0285C12.8632 14.0426 12.4997 14.3069 12.3846 14.6161L12.082 15.4312C11.9669 15.7404 11.6221 15.8942 11.3156 15.7729L10.5053 15.4526C10.199 15.3312 9.7594 15.4246 9.52868 15.6602L8.92012 16.2817C8.68931 16.5172 8.31196 16.5172 8.081 16.2821L7.47146 15.6601C7.24059 15.4247 6.801 15.3313 6.49449 15.4526L5.68459 15.7729C5.37812 15.8943 5.03331 15.7405 4.91843 15.4312L4.61515 14.6161C4.50018 14.3071 4.13674 14.0427 3.80731 14.0286L2.93787 13.9918C2.60834 13.9777 2.35578 13.6968 2.37634 13.368L2.43074 12.4995C2.45121 12.1706 2.22643 11.7812 1.93121 11.6346L1.15121 11.2473C0.856026 11.1007 0.739307 10.7418 0.892026 10.4494L1.2954 9.67828C1.44803 9.38612 1.40109 8.93925 1.19068 8.68556L0.635213 8.01422C0.424963 7.76047 0.464338 7.38518 0.722494 7.18022L1.40681 6.6375C1.66496 6.43253 1.80378 6.00519 1.71521 5.68759L1.48121 4.85078C1.39259 4.53334 1.58121 4.20622 1.90034 4.12415L2.74378 3.90631C3.0629 3.82415 3.36362 3.48975 3.41178 3.16359L3.53906 2.30319C3.58731 1.97709 3.89259 1.75544 4.21753 1.81047L5.07649 1.956C5.40153 2.01097 5.81187 1.82825 5.98818 1.55L6.45459 0.814092C6.6309 0.535685 7.00012 0.456967 7.2749 0.639373L8.00121 1.1214Z" fill="#FF9943"/>
<path d="M13.6762 8.50876C13.6762 11.3677 11.3584 13.6853 8.49965 13.6853C5.64109 13.6853 3.32324 11.3677 3.32324 8.50876C3.32324 5.65066 5.64099 3.33301 8.49965 3.33301C11.3584 3.33301 13.6762 5.65066 13.6762 8.50876Z" fill="#FD7401"/>
<path d="M6.51718 11.1388L5.86133 10.4829L7.84421 8.50006L5.86133 6.51718L6.51718 5.86133L8.50006 7.84421L10.4829 5.86133L11.1388 6.51718L9.15592 8.50006L11.1388 10.4829L10.4829 11.1388L8.50006 9.15592L6.51718 11.1388Z" fill="white"/>
</g>
<defs>
<clipPath id="clip0_219_9095">
<rect width="16" height="16" fill="white" transform="translate(0.5 0.5)"/>
</clipPath>
</defs>
</svg>
