<svg width="36" height="36" viewBox="0 0 36 36" fill="none" xmlns="http://www.w3.org/2000/svg">
<g clip-path="url(#clip0_313_497)">
<path d="M6.8965 10.8793H11.8326C11.7238 11.2913 11.664 11.7258 11.664 12.1751V12.6957C11.664 13.4321 12.2317 14.031 12.9295 14.031H21.8357C22.5335 14.031 23.1012 13.4321 23.1012 12.6957V12.1751C23.1012 11.7258 23.0414 11.2913 22.9326 10.8793H27.8687C28.4484 10.8793 28.9201 10.3849 28.9201 9.77753V9.39027C28.9201 7.57463 27.6766 6.06511 26.0576 5.79354C26.325 5.55936 26.5484 5.25393 26.7163 4.88008C27.2349 3.72749 27.0976 2.17212 26.4104 1.41243C25.9231 0.874226 25.3341 0.623111 24.5559 0.623111C23.7755 0.623111 23.1851 0.874226 22.6978 1.41243C22.0107 2.17212 21.8734 3.72749 22.3919 4.87937C22.5605 5.25322 22.7839 5.55936 23.0521 5.79354C21.9466 5.98258 20.9842 6.75991 20.5076 7.85043C20.0516 7.62753 19.5544 7.48645 19.0322 7.44413C19.5003 7.12671 19.8809 6.65904 20.1526 6.05665C20.8284 4.5556 20.6548 2.5361 19.7663 1.55421C19.1439 0.863645 18.387 0.541992 17.3861 0.541992C16.3824 0.541992 15.6241 0.863645 14.9988 1.55421C14.1104 2.5361 13.9375 4.5556 14.6126 6.05594C14.8836 6.65904 15.2649 7.12671 15.733 7.44413C15.2108 7.48645 14.7136 7.62753 14.2576 7.85043C13.7803 6.75991 12.8185 5.98258 11.7131 5.79354C11.9813 5.55936 12.2046 5.25322 12.3732 4.87937C12.8918 3.72678 12.7545 2.17142 12.0673 1.41173C11.5801 0.873521 10.9911 0.622405 10.2128 0.622405C9.43248 0.622405 8.84205 0.873521 8.35478 1.41173C7.66761 2.17142 7.53031 3.72678 8.04889 4.87867C8.21677 5.25181 8.44014 5.55795 8.70761 5.79213C7.08785 6.0637 5.84511 7.57322 5.84511 9.38886V9.77612C5.84511 10.3849 6.31674 10.8793 6.8965 10.8793ZM22.249 12.6957C22.249 12.9609 22.0605 13.1845 21.8371 13.1845H12.9309C12.7076 13.1845 12.519 12.9609 12.519 12.6957V12.1751C12.519 10.0251 14.1118 8.27507 16.0694 8.27507H18.6993C20.657 8.27507 22.2497 10.0244 22.2497 12.1751V12.6957H22.249ZM23.3352 1.97744C23.6574 1.62122 24.0231 1.46957 24.558 1.46957C25.0901 1.46957 25.455 1.62122 25.7773 1.97744C26.1913 2.43453 26.3478 3.62521 25.9388 4.53444C25.7424 4.97107 25.3426 5.49164 24.5566 5.49164C23.7698 5.49164 23.3701 4.97107 23.1737 4.53373C22.7647 3.62521 22.9219 2.43453 23.3352 1.97744ZM23.5771 6.59556H25.5347C26.9318 6.59556 28.0679 7.84902 28.0679 9.38957V9.77682C28.0679 9.91508 27.9775 10.0322 27.8701 10.0322H22.626C22.3009 9.34301 21.8243 8.75049 21.2438 8.3054C21.6372 7.28613 22.5613 6.59556 23.5771 6.59556ZM15.3922 5.71101C14.8601 4.5288 14.9732 2.84999 15.6341 2.11922C16.0979 1.60712 16.6214 1.38845 17.3861 1.38845C18.1473 1.38845 18.6694 1.60712 19.1332 2.11922C19.7941 2.84999 19.9072 4.5288 19.3751 5.71101C19.0934 6.33739 18.5193 7.08298 17.384 7.08298C16.2487 7.08368 15.6739 6.33739 15.3922 5.71101ZM8.99002 1.97744C9.31226 1.62122 9.6779 1.46957 10.2128 1.46957C10.7449 1.46957 11.1099 1.62122 11.4321 1.97744C11.8461 2.43453 12.0026 3.62591 11.5936 4.53444C11.3972 4.97107 10.9975 5.49164 10.2114 5.49164C9.42465 5.49164 9.02487 4.97107 8.82854 4.53444C8.41951 3.62591 8.57672 2.43453 8.99002 1.97744ZM6.69874 9.38957C6.69874 7.84902 7.83549 6.59556 9.23188 6.59556H11.1895C12.2053 6.59556 13.1301 7.28613 13.5228 8.3061C12.9416 8.7512 12.4657 9.34372 12.1406 10.0329H6.8965C6.78908 10.0329 6.69874 9.91578 6.69874 9.77753V9.38957ZM19.1076 21.5193C19.2741 21.6843 19.2741 21.9524 19.1076 22.1181L17.8009 23.4139C17.7613 23.4532 17.7143 23.4844 17.6625 23.5057C17.6108 23.527 17.5553 23.538 17.4992 23.538C17.4432 23.538 17.3877 23.527 17.336 23.5057C17.2842 23.4844 17.2372 23.4532 17.1976 23.4139L15.8909 22.1181C15.7244 21.9531 15.7244 21.685 15.8909 21.5193C16.0573 21.3542 16.3276 21.3542 16.4948 21.5193L17.0731 22.0927V17.4027C17.0731 17.1692 17.2645 16.9795 17.5 16.9795C17.7354 16.9795 17.9268 17.1692 17.9268 17.4027V22.0927L18.5051 21.5193C18.6708 21.3542 18.9412 21.3542 19.1076 21.5193ZM24.7942 19.0984C24.9607 19.2635 24.9607 19.5315 24.7942 19.6973L23.4874 20.9931C23.4078 21.0721 23.2989 21.1172 23.1858 21.1172C23.0727 21.1172 22.9639 21.0728 22.8842 20.9931L21.5774 19.6973C21.411 19.5322 21.411 19.2642 21.5774 19.0984C21.7439 18.9334 22.0142 18.9334 22.1814 19.0984L22.7597 19.6719V17.0789C22.7597 16.8454 22.9511 16.6557 23.1865 16.6557C23.422 16.6557 23.6133 16.8454 23.6133 17.0789V19.6719L24.1917 19.0984C24.3574 18.9326 24.6277 18.9326 24.7942 19.0984ZM13.4218 19.0984C13.5882 19.2635 13.5882 19.5315 13.4218 19.6973L12.115 20.9931C12.0353 21.0721 11.9265 21.1172 11.8134 21.1172C11.7003 21.1172 11.5914 21.0728 11.5118 20.9931L10.205 19.6973C10.0386 19.5322 10.0386 19.2642 10.205 19.0984C10.3715 18.9334 10.6418 18.9334 10.809 19.0984L11.3873 19.6719V17.0789C11.3873 16.8454 11.5786 16.6557 11.8141 16.6557C12.0496 16.6557 12.2409 16.8454 12.2409 17.0789V19.6719L12.8192 19.0984C12.985 18.9326 13.2546 18.9326 13.4218 19.0984ZM31.3991 18.8007V16.114C31.3991 15.4791 30.8784 14.9628 30.2382 14.9628H4.7603C4.12008 14.9628 3.59937 15.4791 3.59937 16.114V18.7895C3.59937 19.1824 3.78859 19.5322 4.11937 19.7495L15.363 27.132V32.7807C15.363 32.9323 15.4449 33.072 15.5772 33.1475C15.6426 33.1848 15.7166 33.2039 15.7899 33.2039C15.8646 33.2039 15.9385 33.1848 16.0054 33.146L19.326 31.2211C20.3895 33.1954 22.4894 34.542 24.9002 34.542C28.3823 34.542 31.2156 31.7332 31.2156 28.2796C31.2156 25.5809 29.4856 23.2757 27.067 22.3975L30.9026 19.7452C31.2177 19.5266 31.3991 19.1824 31.3991 18.8007ZM30.3613 28.2789C30.3613 31.2648 27.9114 33.6948 24.8995 33.6948C21.8876 33.6948 19.4377 31.2655 19.4377 28.2789C19.4377 25.2923 21.8876 22.863 24.8995 22.863C27.9114 22.863 30.3613 25.2931 30.3613 28.2789ZM30.5455 18.8007C30.5455 18.908 30.5028 18.9898 30.4139 19.0504L25.9878 22.1104C25.6285 22.0482 25.2643 22.0171 24.8995 22.0173C21.4174 22.0173 18.5841 24.8261 18.5841 28.2796C18.5841 29.04 18.7214 29.7694 18.9732 30.4444L16.216 32.0428V26.9048C16.216 26.7574 16.1398 26.6276 16.0246 26.5522L4.59099 19.0434C4.49852 18.9827 4.4537 18.8995 4.4537 18.7895V16.114C4.4537 15.9461 4.59171 15.8092 4.76101 15.8092H30.2389C30.4082 15.8092 30.5462 15.9461 30.5462 16.114V18.8007H30.5455ZM24.8995 24.4417C25.1349 24.4417 25.3263 24.6314 25.3263 24.8649V25.3953C26.0063 25.5738 26.5071 26.1684 26.5071 26.8731C26.5071 27.1066 26.3158 27.2963 26.0803 27.2963C25.8449 27.2963 25.6535 27.1066 25.6535 26.8731C25.6535 26.495 25.3156 26.1868 24.8995 26.1868C24.484 26.1868 24.1454 26.4943 24.1454 26.8731C24.1454 27.2702 24.6164 27.4804 25.0112 27.5862C26.3129 27.9361 26.5071 28.6951 26.5071 29.1169C26.5071 29.8209 26.0063 30.4155 25.3263 30.5947V31.1251C25.3263 31.3586 25.1349 31.5484 24.8995 31.5484C24.664 31.5484 24.4727 31.3586 24.4727 31.1251V30.5947C23.7926 30.4162 23.2918 29.8216 23.2918 29.1169C23.2918 28.8834 23.4832 28.6937 23.7186 28.6937C23.9541 28.6937 24.1454 28.8834 24.1454 29.1169C24.1454 29.495 24.4833 29.8033 24.8995 29.8033C25.3156 29.8033 25.6535 29.4957 25.6535 29.1169C25.6535 28.7198 25.1826 28.5096 24.7878 28.4038C23.486 28.0539 23.2918 27.2949 23.2918 26.8738C23.2918 26.1698 23.7926 25.5752 24.4727 25.396V24.8656C24.4727 24.6314 24.664 24.4417 24.8995 24.4417Z" fill="#107790"/>
<path d="M6.90144 10.8793H11.8453C11.7363 11.2913 11.6764 11.7258 11.6764 12.1751V12.6957C11.6764 13.4321 12.245 14.031 12.9439 14.031H21.8641C22.563 14.031 23.1316 13.4321 23.1316 12.6957V12.1751C23.1316 11.7258 23.0717 11.2913 22.9627 10.8793H27.9066C28.4873 10.8793 28.9596 10.3849 28.9596 9.77753V9.39027C28.9596 7.57463 27.7142 6.06511 26.0926 5.79354C26.3605 5.55936 26.5842 5.25393 26.7524 4.88008C27.2718 3.72749 27.1343 2.17212 26.446 1.41243C25.958 0.874226 25.368 0.623111 24.5886 0.623111C23.807 0.623111 23.2157 0.874226 22.7276 1.41243C22.0394 2.17212 21.9019 3.72749 22.4213 4.87937C22.5901 5.25322 22.8138 5.55936 23.0824 5.79354C21.9752 5.98258 21.0113 6.75991 20.5339 7.85043C20.0772 7.62753 19.5792 7.48645 19.0562 7.44413C19.525 7.12671 19.9062 6.65904 20.1784 6.05665C20.8552 4.5556 20.6814 2.5361 19.7915 1.55421C19.1681 0.863645 18.41 0.541992 17.4076 0.541992C16.4023 0.541992 15.6428 0.863645 15.0165 1.55421C14.1266 2.5361 13.9535 4.5556 14.6296 6.05594C14.9011 6.65904 15.283 7.12671 15.7518 7.44413C15.2288 7.48645 14.7308 7.62753 14.2741 7.85043C13.796 6.75991 12.8328 5.98258 11.7256 5.79354C11.9942 5.55936 12.2179 5.25322 12.3868 4.87937C12.9062 3.72678 12.7687 2.17142 12.0804 1.41173C11.5924 0.873521 11.0024 0.622405 10.223 0.622405C9.44141 0.622405 8.85005 0.873521 8.36201 1.41173C7.67376 2.17142 7.53625 3.72678 8.05564 4.87867C8.22379 5.25181 8.44751 5.55795 8.7154 5.79213C7.09309 6.0637 5.8484 7.57322 5.8484 9.38886V9.77612C5.8484 10.3849 6.32077 10.8793 6.90144 10.8793ZM22.278 12.6957C22.278 12.9609 22.0892 13.1845 21.8655 13.1845H12.9454C12.7216 13.1845 12.5328 12.9609 12.5328 12.6957V12.1751C12.5328 10.0251 14.1281 8.27507 16.0888 8.27507H18.7228C20.6835 8.27507 22.2788 10.0244 22.2788 12.1751L22.278 12.6957ZM23.366 1.97744C23.6887 1.62122 24.055 1.46957 24.5907 1.46957C25.1237 1.46957 25.4892 1.62122 25.8119 1.97744C26.2266 2.43453 26.3833 3.62521 25.9736 4.53444C25.777 4.97107 25.3766 5.49164 24.5893 5.49164C23.8013 5.49164 23.4009 4.97107 23.2043 4.53373C22.7946 3.62521 22.952 2.43453 23.366 1.97744ZM23.6082 6.59556H25.569C26.9683 6.59556 28.1061 7.84902 28.1061 9.38957V9.77682C28.1061 9.91507 28.0156 10.0322 27.908 10.0322H22.6557C22.3301 9.34301 21.8527 8.75049 21.2713 8.3054C21.6653 7.28613 22.5908 6.59556 23.6082 6.59556ZM15.4105 5.71101C14.8776 4.5288 14.9909 2.84999 15.6528 2.11922C16.1173 1.60712 16.6417 1.38845 17.4076 1.38845C18.1699 1.38845 18.6929 1.60712 19.1574 2.11922C19.8193 2.84999 19.9326 4.5288 19.3997 5.71101C19.1175 6.33739 18.5425 7.08298 17.4054 7.08298C16.2683 7.08368 15.6927 6.33739 15.4105 5.71101ZM8.99825 1.97744C9.321 1.62122 9.68721 1.46957 10.223 1.46957C10.7559 1.46957 11.1214 1.62122 11.4442 1.97744C11.8588 2.43453 12.0156 3.62591 11.6059 4.53444C11.4093 4.97107 11.0088 5.49164 10.2216 5.49164C9.43357 5.49164 9.03316 4.97107 8.83652 4.53444C8.42684 3.62591 8.5843 2.43453 8.99825 1.97744ZM6.70337 9.38957C6.70337 7.84902 7.8419 6.59556 9.24049 6.59556H11.2012C12.2186 6.59556 13.1448 7.28613 13.5381 8.3061C12.956 8.7512 12.4794 9.34372 12.1538 10.0329H6.90144C6.79385 10.0329 6.70337 9.91578 6.70337 9.77753V9.38957Z" fill="#5FBA8D"/>
</g>
<defs>
<clipPath id="clip0_313_497">
<rect width="36" height="36" fill="white" transform="translate(-0.000976562 0.000976562)"/>
</clipPath>
</defs>
</svg>
