<svg width="40" height="39" viewBox="0 0 40 39" fill="none" xmlns="http://www.w3.org/2000/svg">
<g clip-path="url(#clip0_203_950)">
<path d="M31.792 33.9677L30.3358 29.5985C30.0861 28.8497 29.6397 28.1817 29.0433 27.6646C28.4469 27.1475 27.7225 26.8002 26.9459 26.659L22.7421 25.8941V25.5683C23.4736 25.1437 24.1102 24.5757 24.6172 23.9032H25.8872C26.9277 23.9032 27.7743 23.0565 27.7743 22.0161V14.4677C27.7743 9.95884 24.1058 6.29032 19.5969 6.29032C15.088 6.29032 11.4195 9.95884 11.4195 14.4677V18.871C11.4195 20.0837 12.2819 21.0984 13.4255 21.3349C13.7784 23.1427 14.9081 24.6725 16.4518 25.5683V25.8941L12.2473 26.659C11.4708 26.8002 10.7464 27.1475 10.1502 27.6646C9.55391 28.1818 9.10764 28.8497 8.85808 29.5985L8.60647 30.354L6.46398 28.2115C6.21866 27.9661 6.21866 27.5667 6.46398 27.3214L8.94866 24.8373L4.28502 20.1737L1.47702 22.9817C0.645435 23.8133 0.1875 24.9191 0.1875 26.0954C0.1875 27.2717 0.645435 28.3769 1.47702 29.2085L9.97839 37.7099C10.81 38.5414 11.9158 39 13.0921 39C14.2684 39 15.3736 38.5414 16.1857 37.7287L19.2497 34.9214L18.2942 33.9677H31.792ZM26.5163 22.0161C26.5163 22.3634 26.2338 22.6452 25.8872 22.6452H25.3582C25.5427 22.2248 25.6802 21.7854 25.7684 21.3349C26.0376 21.2789 26.2854 21.172 26.5163 21.0374V22.0161ZM25.8872 19.9542V17.7878C26.2615 18.006 26.5163 18.4074 26.5163 18.871C26.5163 19.3346 26.2615 19.7359 25.8872 19.9542ZM13.3066 19.9542C12.9323 19.7359 12.6776 19.3346 12.6776 18.871C12.6776 18.4074 12.9323 18.006 13.3066 17.7878V19.9542ZM13.3066 15.7258V16.4442C13.086 16.5018 12.8744 16.5894 12.6776 16.7046V14.4677C12.6776 10.6527 15.7818 7.54839 19.5969 7.54839C23.412 7.54839 26.5163 10.6527 26.5163 14.4677V16.7046C26.3196 16.5892 26.1079 16.5015 25.8872 16.4442V15.7258H25.2582C23.3982 15.7258 21.6495 15.0012 20.3335 13.6859L19.5969 12.9493L18.8603 13.6859C17.5444 15.0012 15.7957 15.7258 13.9356 15.7258H13.3066ZM14.5647 20.129V16.96C16.4536 16.8178 18.2149 16.0384 19.5969 14.7244C20.9789 16.0384 22.7402 16.8184 24.6292 16.96V20.129C24.6292 21.0462 24.3788 21.9042 23.9486 22.6452H19.5969V23.9032H22.9144C22.0275 24.6839 20.8682 25.1613 19.5969 25.1613C16.8223 25.1613 14.5647 22.9037 14.5647 20.129ZM21.484 26.1294V26.1589L19.5969 28.046L17.7098 26.1589V26.1294C18.3061 26.3168 18.9396 26.4194 19.5969 26.4194C20.2543 26.4194 20.8877 26.3168 21.484 26.1294ZM10.0507 29.996C10.2291 29.4611 10.5479 28.9839 10.9738 28.6144C11.3997 28.2449 11.9171 27.9967 12.4719 27.8957L16.8688 27.0968L19.5969 29.8249L22.3244 27.0975L26.7207 27.8963C27.2755 27.9972 27.793 28.2454 28.2189 28.6149C28.6449 28.9844 28.9636 29.4617 29.1419 29.9967L30.047 32.7097H17.0361L14.586 30.2596L11.8636 32.7223C11.6265 32.9607 11.2119 32.9607 10.9741 32.7223L9.60034 31.3484L10.0507 29.996ZM4.28439 21.9526L7.16913 24.8373L6.486 25.5205L3.60126 22.6357L4.28439 21.9526ZM15.3145 36.8217C14.7207 37.4142 13.9306 37.7419 13.0908 37.7419C12.2511 37.7419 11.461 37.4142 10.8666 36.8204L2.36521 28.3197C1.7714 27.7259 1.44431 26.9358 1.44431 26.096C1.44431 25.2556 1.7714 24.4656 2.36521 23.8718L2.71118 23.5258L5.59592 26.4105L5.57327 26.4332C4.83793 27.1692 4.83793 28.3662 5.57327 29.1022L10.0841 33.613C10.4407 33.969 10.9144 34.1659 11.4189 34.1659C11.9234 34.1659 12.397 33.9696 12.7304 33.635L12.7776 33.5928L15.6755 36.4908L15.3145 36.8217ZM16.604 35.6391L13.7123 32.7474L14.5433 31.9964L17.4299 34.883L16.604 35.6391ZM37.2098 0H28.4034C27.363 0 26.5163 0.846677 26.5163 1.8871V6.91935C26.5163 7.95977 27.363 8.80645 28.4034 8.80645H30.0835L29.4331 12.6001L35.5033 8.80645H37.2098C38.2502 8.80645 39.0969 7.95977 39.0969 6.91935V1.8871C39.0969 0.846677 38.2502 0 37.2098 0ZM37.8389 6.91935C37.8389 7.26595 37.5564 7.54839 37.2098 7.54839H35.1422L31.1472 10.045L31.5756 7.54839H28.4034C28.0568 7.54839 27.7743 7.26595 27.7743 6.91935V1.8871C27.7743 1.5405 28.0568 1.25806 28.4034 1.25806H37.2098C37.5564 1.25806 37.8389 1.5405 37.8389 1.8871V6.91935Z" fill="white"/>
<path d="M29.033 2.51575H36.5814V3.77382H29.033V2.51575ZM29.033 5.03188H34.0653V6.28994H29.033V5.03188ZM35.3234 5.03188H36.5814V6.28994H35.3234V5.03188ZM19.5975 1.88672C11.3786 1.88672 4.29885 7.57191 2.45831 15.5021L1.26629 13.515L0.1875 14.1623L2.39855 17.8465L6.08279 15.6355L5.43552 14.5567L3.73084 15.5795C5.51352 8.32486 12.0372 3.14478 19.5975 3.14478C21.25 3.14478 22.8805 3.39011 24.4436 3.87446L24.816 2.67301C23.1321 2.15091 21.3765 1.88672 19.5975 1.88672ZM38.7918 13.9277L35.1076 11.7166L32.8972 15.4015L33.976 16.0488L35.0768 14.2139C35.6561 15.9091 35.9524 17.6823 35.9524 19.4996C35.9524 23.2405 34.6566 26.8977 32.3046 29.7969L33.2815 30.5895C35.8153 27.4669 37.2105 23.5279 37.2105 19.4996C37.2105 17.5754 36.9003 15.6965 36.2958 13.8975L38.1446 15.0064L38.7918 13.9277Z" fill="white"/>
</g>
<defs>
<clipPath id="clip0_203_950">
<rect width="39" height="39" fill="white" transform="translate(0.140625)"/>
</clipPath>
</defs>
</svg>
