<svg width="24" height="24" viewBox="0 0 24 24" fill="none" xmlns="http://www.w3.org/2000/svg">
<mask id="mask0_203_910" style="mask-type:alpha" maskUnits="userSpaceOnUse" x="0" y="0" width="24" height="24">
<rect width="24" height="24" fill="#D9D9D9"/>
</mask>
<g mask="url(#mask0_203_910)">
<path d="M11.2308 12.5385C11.0244 12.5385 10.8446 12.4619 10.6912 12.3088C10.5381 12.1554 10.4615 11.9756 10.4615 11.7692C10.4615 11.5627 10.5381 11.3829 10.6912 11.2298C10.8446 11.0766 11.0244 11 11.2308 11C11.4373 11 11.6171 11.0766 11.7702 11.2298C11.9234 11.3829 12 11.5627 12 11.7692C12 11.9756 11.9234 12.1554 11.7702 12.3088C11.6171 12.4619 11.4373 12.5385 11.2308 12.5385ZM11.2308 6.5385C11.0244 6.5385 10.8446 6.46192 10.6912 6.30875C10.5381 6.15542 10.4615 5.97558 10.4615 5.76925C10.4615 5.56275 10.5381 5.38292 10.6912 5.22975C10.8446 5.07658 11.0244 5 11.2308 5C11.4373 5 11.6171 5.07658 11.7702 5.22975C11.9234 5.38292 12 5.56275 12 5.76925C12 5.97558 11.9234 6.15542 11.7702 6.30875C11.6171 6.46192 11.4373 6.5385 11.2308 6.5385ZM13.2308 9.5385C13.0244 9.5385 12.8446 9.46192 12.6912 9.30875C12.5381 9.15542 12.4615 8.97558 12.4615 8.76925C12.4615 8.56275 12.5381 8.38292 12.6912 8.22975C12.8446 8.07658 13.0244 8 13.2308 8C13.4373 8 13.6171 8.07658 13.7703 8.22975C13.9234 8.38292 14 8.56275 14 8.76925C14 8.97558 13.9234 9.15542 13.7703 9.30875C13.6171 9.46192 13.4373 9.5385 13.2308 9.5385ZM14.2308 12.5385C14.0244 12.5385 13.8446 12.4619 13.6913 12.3088C13.5381 12.1554 13.4615 11.9756 13.4615 11.7692C13.4615 11.5627 13.5381 11.3829 13.6913 11.2298C13.8446 11.0766 14.0244 11 14.2308 11C14.4373 11 14.6171 11.0766 14.7703 11.2298C14.9234 11.3829 15 11.5627 15 11.7692C15 11.9756 14.9234 12.1554 14.7703 12.3088C14.6171 12.4619 14.4373 12.5385 14.2308 12.5385ZM14.2308 6.5385C14.0244 6.5385 13.8446 6.46192 13.6913 6.30875C13.5381 6.15542 13.4615 5.97558 13.4615 5.76925C13.4615 5.56275 13.5381 5.38292 13.6913 5.22975C13.8446 5.07658 14.0244 5 14.2308 5C14.4373 5 14.6171 5.07658 14.7703 5.22975C14.9234 5.38292 15 5.56275 15 5.76925C15 5.97558 14.9234 6.15542 14.7703 6.30875C14.6171 6.46192 14.4373 6.5385 14.2308 6.5385ZM16.2308 9.5385C16.0244 9.5385 15.8446 9.46192 15.6913 9.30875C15.5381 9.15542 15.4615 8.97558 15.4615 8.76925C15.4615 8.56275 15.5381 8.38292 15.6913 8.22975C15.8446 8.07658 16.0244 8 16.2308 8C16.4373 8 16.6171 8.07658 16.7703 8.22975C16.9234 8.38292 17 8.56275 17 8.76925C17 8.97558 16.9234 9.15542 16.7703 9.30875C16.6171 9.46192 16.4373 9.5385 16.2308 9.5385ZM17.2308 12.5385C17.0244 12.5385 16.8446 12.4619 16.6913 12.3088C16.5381 12.1554 16.4615 11.9756 16.4615 11.7692C16.4615 11.5627 16.5381 11.3829 16.6913 11.2298C16.8446 11.0766 17.0244 11 17.2308 11C17.4373 11 17.6171 11.0766 17.7703 11.2298C17.9234 11.3829 18 11.5627 18 11.7692C18 11.9756 17.9234 12.1554 17.7703 12.3088C17.6171 12.4619 17.4373 12.5385 17.2308 12.5385ZM17.2308 6.5385C17.0244 6.5385 16.8446 6.46192 16.6913 6.30875C16.5381 6.15542 16.4615 5.97558 16.4615 5.76925C16.4615 5.56275 16.5381 5.38292 16.6913 5.22975C16.8446 5.07658 17.0244 5 17.2308 5C17.4373 5 17.6171 5.07658 17.7703 5.22975C17.9234 5.38292 18 5.56275 18 5.76925C18 5.97558 17.9234 6.15542 17.7703 6.30875C17.6171 6.46192 17.4373 6.5385 17.2308 6.5385ZM19.2308 9.5385C19.0244 9.5385 18.8446 9.46192 18.6913 9.30875C18.5381 9.15542 18.4615 8.97558 18.4615 8.76925C18.4615 8.56275 18.5381 8.38292 18.6913 8.22975C18.8446 8.07658 19.0244 8 19.2308 8C19.4373 8 19.6171 8.07658 19.7703 8.22975C19.9234 8.38292 20 8.56275 20 8.76925C20 8.97558 19.9234 9.15542 19.7703 9.30875C19.6171 9.46192 19.4373 9.5385 19.2308 9.5385ZM20.2307 12.5385C20.0244 12.5385 19.8446 12.4619 19.6913 12.3088C19.5381 12.1554 19.4615 11.9756 19.4615 11.7692C19.4615 11.5627 19.5381 11.3829 19.6913 11.2298C19.8446 11.0766 20.0244 11 20.2307 11C20.4372 11 20.6171 11.0766 20.7703 11.2298C20.9234 11.3829 21 11.5627 21 11.7692C21 11.9756 20.9234 12.1554 20.7703 12.3088C20.6171 12.4619 20.4372 12.5385 20.2307 12.5385ZM20.2307 6.5385C20.0244 6.5385 19.8446 6.46192 19.6913 6.30875C19.5381 6.15542 19.4615 5.97558 19.4615 5.76925C19.4615 5.56275 19.5381 5.38292 19.6913 5.22975C19.8446 5.07658 20.0244 5 20.2307 5C20.4372 5 20.6171 5.07658 20.7703 5.22975C20.9234 5.38292 21 5.56275 21 5.76925C21 5.97558 20.9234 6.15542 20.7703 6.30875C20.6171 6.46192 20.4372 6.5385 20.2307 6.5385ZM18.9307 20C17.2449 20 15.5167 19.5779 13.7462 18.7337C11.9757 17.8894 10.3308 16.7044 8.8115 15.1788C7.29233 13.6532 6.11058 12.0084 5.26625 10.2443C4.42208 8.48008 4 6.75508 4 5.06925C4 4.76375 4.1 4.50917 4.3 4.3055C4.5 4.10183 4.75 4 5.05 4H7.523C7.79483 4 8.032 4.08558 8.2345 4.25675C8.43717 4.42792 8.57442 4.6475 8.64625 4.9155L9.14225 7.3C9.18842 7.5795 9.18008 7.82375 9.11725 8.03275C9.05442 8.24175 8.9435 8.41292 8.7845 8.54625L6.5905 10.5923C7.00067 11.3371 7.45417 12.0291 7.951 12.6683C8.44783 13.3074 8.97767 13.9128 9.5405 14.4845C10.1212 15.0653 10.7462 15.6054 11.4155 16.1048C12.0847 16.6041 12.8193 17.0756 13.6193 17.5193L15.7578 15.3422C15.9206 15.1666 16.1036 15.0509 16.3068 14.9952C16.5099 14.9394 16.7346 14.9282 16.9808 14.9615L19.0845 15.3923C19.3563 15.4589 19.5769 15.5958 19.7462 15.803C19.9154 16.01 20 16.2475 20 16.5155V18.95C20 19.25 19.8982 19.5 19.6945 19.7C19.4908 19.9 19.2362 20 18.9307 20ZM6.12125 9.65375L8.0405 7.8885C8.1045 7.83717 8.14617 7.76667 8.1655 7.677C8.18467 7.58717 8.18142 7.50383 8.15575 7.427L7.7115 5.30775C7.68583 5.20508 7.641 5.12817 7.577 5.077C7.51283 5.02567 7.4295 5 7.327 5H5.275C5.198 5 5.13392 5.02567 5.08275 5.077C5.03142 5.12817 5.00575 5.19225 5.00575 5.26925C5.02492 5.95258 5.132 6.666 5.327 7.4095C5.52183 8.15317 5.78658 8.90125 6.12125 9.65375ZM14.5712 17.9885C15.2467 18.3232 15.9669 18.5706 16.7318 18.7308C17.4964 18.8911 18.1628 18.977 18.7308 18.9885C18.8077 18.9885 18.8718 18.9628 18.923 18.9115C18.9743 18.8602 19 18.7961 19 18.7193V16.7115C19 16.609 18.9743 16.5257 18.923 16.4615C18.8718 16.3975 18.7949 16.3527 18.6923 16.327L16.8422 15.948C16.7654 15.9223 16.6982 15.9192 16.6405 15.9385C16.5827 15.9577 16.5218 15.9993 16.4578 16.0635L14.5712 17.9885Z" fill="#74DE9E"/>
</g>
</svg>
