<svg width="36" height="36" viewBox="0 0 36 36" fill="none" xmlns="http://www.w3.org/2000/svg">
<g clip-path="url(#clip0_313_469)">
<path d="M19.8473 20.4265V22.5902C19.8473 23.0417 19.4779 23.4111 19.0264 23.4111H16.9717C16.5202 23.4111 16.1507 23.0417 16.1507 22.5902V20.4265M21.2858 16.6084H24.4406L19.8473 20.3209H16.1508L11.5575 16.6084H18.8914M11.513 16.6084C11.0615 16.6084 10.6921 16.239 10.6921 15.7875V14.727C10.6921 14.2755 11.0615 13.9061 11.513 13.9061H24.4851C24.9366 13.9061 25.306 14.2755 25.306 14.727V15.7875C25.306 16.239 24.9366 16.6084 24.4851 16.6084M26.0538 10.4551H24.3261C23.9489 10.4551 23.6432 10.7608 23.6432 11.1379V13.8781M10.2314 10.4551H11.9797C12.3569 10.4551 12.6626 10.7608 12.6626 11.1379V13.8781" stroke="#5FBA8D" stroke-miterlimit="10" stroke-linecap="round" stroke-linejoin="round"/>
<path d="M3.40883 8.59104C4.3541 8.59104 5.12039 7.82476 5.12039 6.8795C5.12039 5.93425 4.3541 5.16797 3.40883 5.16797C2.46356 5.16797 1.69727 5.93425 1.69727 6.8795C1.69727 7.82476 2.46356 8.59104 3.40883 8.59104Z" stroke="#5FBA8D" stroke-miterlimit="10" stroke-linecap="round" stroke-linejoin="round"/>
<path d="M12.5806 4.42404C13.5259 4.42404 14.2921 3.65776 14.2921 2.71251C14.2921 1.76726 13.5259 1.00098 12.5806 1.00098C11.6353 1.00098 10.869 1.76726 10.869 2.71251C10.869 3.65776 11.6353 4.42404 12.5806 4.42404Z" stroke="#5FBA8D" stroke-miterlimit="10" stroke-linecap="round" stroke-linejoin="round"/>
<path d="M23.7151 4.42404C24.6604 4.42404 25.4267 3.65776 25.4267 2.71251C25.4267 1.76726 24.6604 1.00098 23.7151 1.00098C22.7698 1.00098 22.0035 1.76726 22.0035 2.71251C22.0035 3.65776 22.7698 4.42404 23.7151 4.42404Z" stroke="#5FBA8D" stroke-miterlimit="10" stroke-linecap="round" stroke-linejoin="round"/>
<path d="M14.3517 2.71289H16.3313C16.7085 2.71289 17.0142 3.01861 17.0142 3.39575V13.8781M12.5763 6.88005H14.1782C14.5553 6.88005 14.861 7.18577 14.861 7.56291V13.8781M5.21167 6.88005H10.1441M21.9335 2.71289H19.9643C19.5871 2.71289 19.2814 3.01861 19.2814 3.39575V13.8781M30.7911 6.58397H22.1174C21.7403 6.58397 21.4345 6.88969 21.4345 7.26683V13.8781" stroke="#5FBA8D" stroke-miterlimit="10" stroke-linecap="round" stroke-linejoin="round"/>
<path d="M27.8734 12.1653C28.8187 12.1653 29.585 11.399 29.585 10.4537C29.585 9.50847 28.8187 8.74219 27.8734 8.74219C26.9282 8.74219 26.1619 9.50847 26.1619 10.4537C26.1619 11.399 26.9282 12.1653 27.8734 12.1653Z" stroke="#5FBA8D" stroke-miterlimit="10" stroke-linecap="round" stroke-linejoin="round"/>
<path d="M8.43251 12.1653C9.37778 12.1653 10.1441 11.399 10.1441 10.4537C10.1441 9.50847 9.37778 8.74219 8.43251 8.74219C7.48724 8.74219 6.72095 9.50847 6.72095 10.4537C6.72095 11.399 7.48724 12.1653 8.43251 12.1653Z" stroke="#5FBA8D" stroke-miterlimit="10" stroke-linecap="round" stroke-linejoin="round"/>
<path d="M32.589 8.29514C33.5343 8.29514 34.3006 7.52886 34.3006 6.5836C34.3006 5.63835 33.5343 4.87207 32.589 4.87207C31.6437 4.87207 30.8774 5.63835 30.8774 6.5836C30.8774 7.52886 31.6437 8.29514 32.589 8.29514Z" stroke="#5FBA8D" stroke-miterlimit="10" stroke-linecap="round" stroke-linejoin="round"/>
<path d="M15.2283 27.9954H18.111L34.9991 18.1885M25.92 35.0001H21.3805V29.2132C21.3805 28.7617 21.7499 28.3923 22.2014 28.3923H25.92M25.92 30.9774V26.7331C25.92 26.2816 26.2894 25.9122 26.7409 25.9122H30.4595" stroke="#0E7690" stroke-miterlimit="10" stroke-linecap="round" stroke-linejoin="round"/>
<path d="M30.4592 34.9995H25.9196V33.3711M30.4592 34.9995H34.1778C34.6293 34.9995 34.9987 34.6301 34.9987 34.1786V23.9899C34.9987 23.5384 34.6293 23.1689 34.1778 23.1689H31.2801C30.8286 23.1689 30.4592 23.5384 30.4592 23.9899V27.4804M30.4592 34.9995V29.8748M21.3801 34.9995H17.6615C17.21 34.9995 16.8406 34.6301 16.8406 34.1786V31.4822C16.8406 31.0307 17.21 30.6613 17.6615 30.6613H21.3801" stroke="#0E7690" stroke-miterlimit="10" stroke-linecap="round" stroke-linejoin="round"/>
<path d="M8.03744 35.0012C11.9247 35.0012 15.0759 31.8405 15.0759 27.9415C15.0759 24.0426 11.9247 20.8818 8.03744 20.8818C4.15023 20.8818 0.999023 24.0426 0.999023 27.9415C0.999023 31.8405 4.15023 35.0012 8.03744 35.0012Z" stroke="#0E7690" stroke-miterlimit="10" stroke-linecap="round" stroke-linejoin="round"/>
<path d="M8.03752 32.7107C10.6645 32.7107 12.794 30.5747 12.794 27.9398C12.794 25.3049 10.6645 23.1689 8.03752 23.1689C5.41057 23.1689 3.28101 25.3049 3.28101 27.9398C3.28101 30.5747 5.41057 32.7107 8.03752 32.7107Z" stroke="#0E7690" stroke-miterlimit="10" stroke-linecap="round" stroke-linejoin="round"/>
<path d="M8.84379 26.1835C8.78804 26.1243 8.36246 25.7037 7.69894 25.9042C7.04439 26.102 6.8419 26.8916 7.30244 27.4238C7.54112 27.6996 7.94214 27.7899 8.46001 27.9736C9.61916 28.3846 9.19064 30.0242 8.01158 30.0321C7.55145 30.0351 7.3363 30.0059 6.93213 29.7406M8.03744 30.1025V30.7816M8.03744 25.1016V25.7808M8.03744 20.8818V22.9496M13.0144 27.9416H15.0759M11.5572 24.4113L13.0144 22.9496M13.0144 32.9336L11.5033 31.4179M8.03744 32.7901V35.0013M0.999023 27.9416H3.06051M3.06051 32.9336L4.57169 31.4179M4.63333 24.5272L3.06051 22.9496" stroke="#0E7690" stroke-miterlimit="10" stroke-linecap="round" stroke-linejoin="round"/>
</g>
<defs>
<clipPath id="clip0_313_469">
<rect width="36" height="36" fill="white" transform="translate(-0.000976562 0.000976562)"/>
</clipPath>
</defs>
</svg>
