<svg width="17" height="16" viewBox="0 0 17 16" fill="none" xmlns="http://www.w3.org/2000/svg">
<g clip-path="url(#clip0_820_407)">
<path d="M13.3789 7.99997C13.3789 8.27612 13.155 8.49997 12.8789 8.49997H9.44137V11.9375C9.44137 12.2136 9.2175 12.4375 8.94137 12.4375C8.66525 12.4375 8.44137 12.2136 8.44137 11.9375V8.49997H5.00387C4.72775 8.49997 4.50388 8.27612 4.50388 7.99997C4.50388 7.72381 4.72775 7.49997 5.00387 7.49997H8.44137V4.06247C8.44137 3.78631 8.66525 3.56247 8.94137 3.56247C9.2175 3.56247 9.44137 3.78631 9.44137 4.06247V7.49997H12.8789C13.155 7.49997 13.3789 7.72384 13.3789 7.99997Z" fill="#44B678"/>
</g>
<defs>
<clipPath id="clip0_820_407">
<rect width="16" height="16" fill="white" transform="translate(0.941406)"/>
</clipPath>
</defs>
</svg>
