<svg width="16" height="17" viewBox="0 0 16 17" fill="none" xmlns="http://www.w3.org/2000/svg">
<g clip-path="url(#clip0_218_9006)">
<path d="M7.50121 1.1214C7.77593 1.30356 8.22546 1.30356 8.49978 1.1214L9.22521 0.639404C9.49978 0.456998 9.86875 0.535717 10.0453 0.814123L10.5119 1.55003C10.6885 1.82828 11.0989 2.011 11.4238 1.95603L12.2827 1.8105C12.6077 1.75547 12.9132 1.97712 12.961 2.30322L13.0884 3.16362C13.1367 3.48978 13.437 3.82418 13.7564 3.90643L14.5992 4.12381C14.9187 4.20637 15.1072 4.53372 15.0185 4.85118L14.7851 5.68765C14.6964 6.00509 14.8351 6.43268 15.0934 6.63765L15.7775 7.18037C16.0358 7.38534 16.075 7.76062 15.8648 8.01478L15.3094 8.68525C15.0993 8.93915 15.0523 9.38606 15.2049 9.67822L15.6083 10.4493C15.7609 10.7417 15.6445 11.1007 15.3492 11.2472L14.569 11.6345C14.2737 11.7812 14.0492 12.1704 14.0698 12.4994L14.1237 13.368C14.1446 13.6968 13.8917 13.9777 13.5622 13.9917L12.6924 14.0285C12.3632 14.0426 11.9997 14.3069 11.8846 14.6161L11.582 15.4312C11.4669 15.7404 11.1221 15.8942 10.8156 15.7729L10.0053 15.4526C9.699 15.3312 9.2594 15.4246 9.02868 15.6602L8.42012 16.2817C8.18931 16.5172 7.81196 16.5172 7.581 16.2821L6.97146 15.6601C6.74059 15.4247 6.301 15.3313 5.99449 15.4526L5.18459 15.7729C4.87812 15.8943 4.53331 15.7405 4.41843 15.4312L4.11515 14.6161C4.00018 14.3071 3.63674 14.0427 3.30731 14.0286L2.43787 13.9918C2.10834 13.9777 1.85578 13.6968 1.87634 13.368L1.93074 12.4995C1.95121 12.1706 1.72643 11.7812 1.43121 11.6346L0.651213 11.2473C0.356026 11.1007 0.239307 10.7418 0.392026 10.4494L0.795401 9.67828C0.948026 9.38612 0.901088 8.93925 0.690682 8.68556L0.135213 8.01422C-0.075037 7.76047 -0.035662 7.38518 0.222494 7.18022L0.906807 6.6375C1.16496 6.43253 1.30378 6.00519 1.21521 5.68759L0.981213 4.85078C0.892588 4.53334 1.08121 4.20622 1.40034 4.12415L2.24378 3.90631C2.5629 3.82415 2.86362 3.48975 2.91178 3.16359L3.03906 2.30319C3.08731 1.97709 3.39259 1.75544 3.71753 1.81047L4.57649 1.956C4.90153 2.01097 5.31187 1.82825 5.48818 1.55L5.95459 0.814092C6.1309 0.535685 6.50012 0.456967 6.7749 0.639373L7.50121 1.1214Z" fill="#90DEA9"/>
<path d="M13.1762 8.50876C13.1762 11.3677 10.8584 13.6853 7.99965 13.6853C5.14109 13.6853 2.82324 11.3677 2.82324 8.50876C2.82324 5.65066 5.14099 3.33301 7.99965 3.33301C10.8584 3.33301 13.1762 5.65066 13.1762 8.50876Z" fill="#71BF8C"/>
<path d="M7.13743 10.9261L5.06543 8.85396L5.75574 8.16334L7.13743 9.54477L10.2453 6.43652L10.9356 7.1274L7.13743 10.9261Z" fill="white"/>
</g>
<defs>
<clipPath id="clip0_218_9006">
<rect width="16" height="16" fill="white" transform="translate(0 0.5)"/>
</clipPath>
</defs>
</svg>
