<svg width="128" height="133" viewBox="0 0 128 133" fill="none" xmlns="http://www.w3.org/2000/svg">
<path d="M62.4663 1.75638C63.4591 1.162 64.6983 1.162 65.691 1.75638L117.596 32.8337C118.543 33.4006 119.123 34.4231 119.123 35.5267V97.8818C119.123 98.9853 118.543 100.008 117.596 100.575L65.691 131.652C64.6983 132.246 63.4591 132.246 62.4663 131.652L10.5612 100.575C9.61439 100.008 9.03484 98.9853 9.03484 97.8818V35.5267C9.03484 34.4231 9.61439 33.4006 10.5612 32.8337L62.4663 1.75638Z" fill="url(#paint0_linear_595_299)"/>
<path d="M62.6679 2.093C63.5365 1.57292 64.6209 1.57292 65.4895 2.093L117.395 33.1703C118.223 33.6664 118.73 34.5611 118.73 35.5267V97.8818C118.73 98.8474 118.223 99.7421 117.395 100.238L65.4895 131.315C64.6209 131.836 63.5365 131.836 62.6679 131.315L10.7628 100.238C9.93429 99.7421 9.42718 98.8474 9.42718 97.8818V35.5267C9.42718 34.561 9.93429 33.6664 10.7628 33.1703L62.6679 2.093Z" stroke="white" stroke-opacity="0.5" stroke-width="0.784681"/>
<path d="M80.8861 73.031C80.3589 68.2967 76.3311 64.5957 71.4597 64.5957C66.5883 64.5957 62.5604 68.2967 62.0332 73.031H80.8861ZM62.0332 75.1399C62.5604 79.8742 66.5883 83.5752 71.4597 83.5752C76.3311 83.5752 80.3589 79.8742 80.8861 75.1399H62.0332Z" fill="#5FBA8D"/>
<path d="M77.9232 52.8598C73.9059 48.8319 67.358 48.8319 63.3301 52.8598L50.2343 65.9556C46.2064 69.9835 46.2064 76.5314 50.2343 80.5487C51.1904 81.51 52.3275 82.2723 53.5798 82.7917C54.8322 83.3111 56.175 83.5773 57.5308 83.5749C59.4288 83.5749 61.3267 83.0477 62.9927 82.0038C60.9757 79.8611 59.8552 77.0278 59.8611 74.0851C59.8611 70.5001 61.4849 67.3053 64.0366 65.1753L59.0176 60.1563L64.8274 54.3465C68.0223 51.1516 73.2311 51.1411 76.4365 54.3465C79.1253 57.0458 79.547 61.1686 77.7018 64.3107C78.3028 64.6903 78.8616 65.1226 79.3783 65.6076C81.8667 61.6325 81.3817 56.3077 77.9232 52.8598Z" fill="#5FBA8D"/>
<path d="M44.3509 82.0566C44.3129 81.8695 44.225 81.6962 44.0964 81.555C43.9679 81.4139 43.8034 81.3102 43.6207 81.2551C43.4379 81.1999 43.2435 81.1953 43.0584 81.2418C42.8732 81.2882 42.704 81.384 42.5689 81.5189L40.1332 83.9546C39.5638 83.1638 39.0155 82.3519 38.5094 81.4873C31.8244 69.9414 33.754 55.285 43.191 45.848C52.3644 36.6851 66.2511 34.5658 77.7442 40.5549C78.2609 40.829 78.8935 40.6287 79.1677 40.112C79.4313 39.5953 79.2415 38.9627 78.7248 38.6885C66.4092 32.2671 51.5314 34.5447 41.7043 44.3507C31.5925 54.4731 29.5258 70.1734 36.6853 82.5417C37.2863 83.5644 37.94 84.524 38.6254 85.4519L35.652 88.4253C35.3778 88.6994 35.2724 89.1001 35.3883 89.4797C35.5043 89.8488 35.8101 90.1335 36.1897 90.2073L44.8359 91.9365C44.9097 91.947 44.973 91.9576 45.0468 91.9576C45.3209 91.9576 45.5951 91.8521 45.7954 91.6518C46.0485 91.3988 46.1539 91.0508 46.0801 90.7028L44.3509 82.0672V82.0566ZM91.4727 50.867C90.8717 49.8442 90.2179 48.8847 89.5326 47.9568L92.506 44.9834C92.7802 44.7092 92.8856 44.3086 92.7696 43.929C92.6536 43.5599 92.3479 43.2752 91.9683 43.2014L83.3221 41.4722C82.9741 41.4089 82.6156 41.5144 82.3731 41.7569C82.1306 41.9994 82.0146 42.3579 82.0884 42.7059L83.8176 51.3415C83.8915 51.7211 84.1761 52.0269 84.5452 52.1429C84.6506 52.1745 84.7455 52.1851 84.851 52.1851C85.1251 52.1851 85.3993 52.0796 85.5996 51.8793L88.0353 49.4436C88.6047 50.2344 89.153 51.0463 89.6591 51.9109C96.3441 63.4567 94.4145 78.1131 84.9775 87.5501C75.8041 96.7025 61.9174 98.8324 50.4349 92.8433C49.9182 92.5797 49.2855 92.7695 49.0114 93.2862C48.7478 93.8028 48.9376 94.4355 49.4542 94.7096C54.1148 97.1453 59.1443 98.3263 64.1317 98.3263C72.314 98.3263 80.3697 95.1419 86.4748 89.0474C96.5866 78.9356 98.6533 63.2248 91.4938 50.8565L91.4727 50.867Z" fill="#066D8B"/>
<defs>
<linearGradient id="paint0_linear_595_299" x1="0.519531" y1="66.7042" x2="127.638" y2="66.7042" gradientUnits="userSpaceOnUse">
<stop stop-color="white"/>
<stop offset="1" stop-color="white"/>
</linearGradient>
</defs>
</svg>
