<svg width="36" height="36" viewBox="0 0 36 36" fill="none" xmlns="http://www.w3.org/2000/svg">
<g clip-path="url(#clip0_313_462)">
<path d="M13.3544 6.56512L12.5186 5.8125L7.89932 10.9447L6.06332 8.64975L5.18469 9.35287L7.84869 12.6829L13.3544 6.56512ZM7.3115 19.6888H8.4365V20.8138H7.3115V19.6888ZM28.124 12.9388C27.1936 12.9388 26.4365 13.6959 26.4365 14.6263C26.4365 15.5567 27.1936 16.3138 28.124 16.3138C29.0544 16.3138 29.8115 15.5567 29.8115 14.6263C29.8115 13.6959 29.0544 12.9388 28.124 12.9388ZM28.124 15.1888C27.9792 15.1823 27.8424 15.1202 27.7422 15.0155C27.642 14.9107 27.5861 14.7713 27.5861 14.6263C27.5861 14.4813 27.642 14.3419 27.7422 14.2372C27.8424 14.1324 27.9792 14.0703 28.124 14.0638C28.2688 14.0703 28.4056 14.1324 28.5058 14.2372C28.606 14.3419 28.6619 14.4813 28.6619 14.6263C28.6619 14.7713 28.606 14.9107 28.5058 15.0155C28.4056 15.1202 28.2688 15.1823 28.124 15.1888Z" fill="#5FBA8D"/>
<path d="M35.4365 21.0577C35.4381 19.5825 35.1162 18.1249 34.4937 16.7876C33.8711 15.4502 32.963 14.2656 31.8331 13.3171C31.5648 12.5605 31.072 11.9037 30.4207 11.4344L31.1058 10.3499C31.1861 10.2233 31.2401 10.0818 31.2646 9.93381C31.289 9.78585 31.2834 9.63449 31.2481 9.48874C31.2138 9.3429 31.1505 9.20545 31.062 9.08456C30.9735 8.96368 30.8616 8.86182 30.7329 8.78505L29.5095 8.05099L29.865 7.33942L30.2199 7.54642C30.4584 7.68523 30.7395 7.73166 31.0099 7.67691C31.2803 7.62216 31.5212 7.47005 31.6869 7.24942L32.6949 5.90561C32.7901 5.77865 32.8573 5.63299 32.8922 5.47821C32.9271 5.32343 32.9289 5.16301 32.8975 5.00749C32.866 4.85196 32.8021 4.70484 32.7098 4.57578C32.6175 4.44672 32.4989 4.33863 32.3619 4.25861L26.5901 0.892611C26.3518 0.753539 26.0708 0.706895 25.8004 0.761554C25.53 0.816213 25.2892 0.968359 25.1236 1.18905L24.1156 2.53286C24.0205 2.65983 23.9532 2.80548 23.9183 2.96026C23.8834 3.11505 23.8816 3.27546 23.9131 3.43098C23.9445 3.58651 24.0085 3.73363 24.1008 3.86269C24.1931 3.99175 24.3116 4.09984 24.4486 4.17986L24.825 4.3998L24.3901 4.97974L23.2668 4.30586C23.0121 4.15398 22.7078 4.10848 22.4198 4.17922C22.1318 4.24996 21.8832 4.43125 21.7278 4.68386L16.6586 12.9785C16.5446 12.9533 16.4283 12.9399 16.3115 12.9385H15.1511C15.9084 11.7649 16.3113 10.3978 16.3115 9.00105C16.3115 4.96905 13.031 1.68855 8.99902 1.68855C4.96702 1.68855 1.68652 4.96905 1.68652 9.00105C1.68652 10.4512 2.11627 11.8006 2.84696 12.9385H2.24902C1.31865 12.9385 0.561523 13.6957 0.561523 14.626V16.8761C0.561523 17.8064 1.31865 18.5636 2.24902 18.5636H2.71421L0.601461 31.7694C0.529531 32.2219 0.556528 32.6847 0.680593 33.1258C0.804658 33.5669 1.02284 33.9759 1.32013 34.3246C1.61742 34.6734 1.98674 34.9535 2.40268 35.1458C2.81862 35.3381 3.27129 35.438 3.72952 35.4386H22.499C23.1195 35.4386 23.624 34.934 23.624 34.3136V33.1886C23.624 33.1829 23.6223 33.1779 23.6223 33.1722C30.1642 33.0024 35.4365 27.6395 35.4365 21.0577ZM30.9365 14.626C30.9365 16.1769 29.6748 17.4386 28.124 17.4386C26.5732 17.4386 25.3115 16.1769 25.3115 14.626C25.3115 13.0752 26.5732 11.8135 28.124 11.8135C29.6748 11.8135 30.9365 13.0752 30.9365 14.626ZM23.6223 28.6734C23.6183 28.3779 23.4983 28.0959 23.2881 27.8883C23.0779 27.6806 22.7945 27.564 22.499 27.5636H17.2858L16.2345 20.9924C16.3858 21.0644 16.5455 21.1145 16.7126 21.1145C16.9068 21.1145 17.0977 21.0642 17.2666 20.9685C17.4356 20.8728 17.5769 20.7349 17.6767 20.5683L18.6155 19.004L19.3727 19.4939L18.3405 21.2146C18.1966 21.4531 18.1466 21.7367 18.2002 22.01C18.2539 22.2834 18.4073 22.527 18.6307 22.6934L19.9756 23.7026C20.1018 23.7969 20.2463 23.8639 20.3998 23.899C20.5534 23.9342 20.7126 23.9368 20.8672 23.9067C21.0217 23.8764 21.1682 23.814 21.297 23.7235C21.4259 23.633 21.5344 23.5164 21.6153 23.3814L22.6683 21.6264L23.4159 22.1101C23.6643 22.2703 23.9657 22.3264 24.2551 22.2663C24.5445 22.2062 24.7987 22.0348 24.9628 21.7889L25.464 21.038C25.6151 20.8136 25.6795 20.5419 25.6451 20.2736C25.6108 20.0052 25.48 19.7585 25.2772 19.5794L26.2278 18.0747C26.8139 18.3993 27.4734 18.5678 28.1433 18.5643C28.8131 18.5607 29.4708 18.3852 30.0534 18.0545C30.6277 18.9109 30.9351 19.9185 30.9365 20.9497V21.0785C30.9365 25.1752 27.6813 28.5164 23.6223 28.6734ZM18.6853 30.9386L18.9665 32.0636H13.6565L13.9378 30.9386H18.6853ZM10.124 29.8136V28.6886H22.499L22.4996 29.8136H10.124ZM15.9088 14.837L24.5268 20.4136L24.0256 21.1651L15.4081 15.5885L15.9088 14.837ZM21.7228 21.0144L20.6501 22.802L19.3046 21.7929L20.3176 20.1048L21.7228 21.0144ZM16.2654 17.483L17.6705 18.392L16.7126 19.9895L15.3671 18.9804L16.2654 17.483ZM26.0236 1.86461L31.7955 5.23117L30.7875 6.57555L25.0156 3.20842L26.0236 1.86461ZM25.8031 4.97017L28.8913 6.7713L28.542 7.46992L25.3605 5.5608L25.8031 4.97017ZM22.688 5.27055L30.1535 9.74974L29.4195 10.9119C29.0034 10.7648 28.5653 10.6893 28.124 10.6885C25.9533 10.6885 24.1865 12.4548 24.1865 14.626C24.1865 15.7038 24.6225 16.6809 25.3261 17.3924L24.3406 18.9528L17.1643 14.3088L22.688 5.27055ZM8.99902 2.81355C12.4106 2.81355 15.1865 5.58949 15.1865 9.00105C15.1865 12.4126 12.4106 15.1885 8.99902 15.1885C5.58746 15.1885 2.81152 12.4126 2.81152 9.00105C2.81152 5.58949 5.58746 2.81355 8.99902 2.81355ZM1.68652 16.8761V14.626C1.68652 14.3161 1.93852 14.0635 2.24902 14.0635H3.73459C5.06602 15.4473 6.93184 16.3135 8.99902 16.3135C11.0662 16.3135 12.932 15.4473 14.2635 14.0635H15.0965C15.0513 14.1098 15.0101 14.1599 14.9733 14.2132L14.4721 14.9641C14.3034 15.2167 14.2449 15.5199 14.3068 15.8169C14.3681 16.1139 14.5425 16.3681 14.7973 16.5324L15.3204 16.871L14.9801 17.4386H2.24902C1.93852 17.4386 1.68652 17.186 1.68652 16.8761ZM3.72952 34.3136C3.43406 34.3131 3.14219 34.2487 2.87401 34.1247C2.60582 34.0007 2.36769 33.8201 2.176 33.5952C1.9843 33.3704 1.8436 33.1067 1.76357 32.8223C1.68354 32.5379 1.66608 32.2395 1.7124 31.9477L2.41384 27.5636H6.74902V26.4386H2.59384L2.95384 24.1886H8.43652V23.0636H3.13384L3.49384 20.8136H6.18652V19.6886H3.67384L3.85384 18.5636H14.3253C14.2325 18.7928 14.2183 19.0464 14.2849 19.2846C14.3514 19.5229 14.495 19.7324 14.6932 19.8804L14.9491 20.0722L16.1467 27.5636H10.124C9.50359 27.5636 8.99902 28.0681 8.99902 28.6886V29.8136C8.99902 30.434 9.50359 30.9386 10.124 30.9386H12.779L12.4978 32.0636H10.124C9.50359 32.0636 8.99902 32.5681 8.99902 33.1886V34.3136H3.72952ZM10.6865 34.3136H10.124V33.1886H22.499L22.4996 34.3136H10.6865ZM23.3056 32.0636H20.1253L19.844 30.9386H22.499C23.1195 30.9386 23.624 30.434 23.624 29.8136V29.7984C28.3023 29.6397 32.0615 25.7951 32.0615 21.0791V20.9502C32.0615 19.6694 31.6683 18.4156 30.9466 17.3654C31.5499 16.7456 31.9317 15.944 32.0328 15.085C33.5005 16.7283 34.3117 18.8544 34.3115 21.0577C34.3115 27.1265 29.3745 32.0636 23.3056 32.0636Z" fill="#066D8B"/>
</g>
<defs>
<clipPath id="clip0_313_462">
<rect width="36" height="36" fill="white" transform="translate(-0.000976562 0.000976562)"/>
</clipPath>
</defs>
</svg>
