<svg width="24" height="25" viewBox="0 0 24 25" fill="none" xmlns="http://www.w3.org/2000/svg">
<mask id="mask0_313_644" style="mask-type:alpha" maskUnits="userSpaceOnUse" x="0" y="0" width="24" height="25">
<rect y="0.203125" width="24" height="24" fill="#D9D9D9"/>
</mask>
<g mask="url(#mask0_313_644)">
<path d="M11.2308 12.7416C11.0244 12.7416 10.8446 12.665 10.6912 12.5119C10.5381 12.3585 10.4615 12.1787 10.4615 11.9724C10.4615 11.7659 10.5381 11.586 10.6912 11.4329C10.8446 11.2797 11.0244 11.2031 11.2308 11.2031C11.4373 11.2031 11.6171 11.2797 11.7702 11.4329C11.9234 11.586 12 11.7659 12 11.9724C12 12.1787 11.9234 12.3585 11.7702 12.5119C11.6171 12.665 11.4373 12.7416 11.2308 12.7416ZM11.2308 6.74162C11.0244 6.74162 10.8446 6.66504 10.6912 6.51187C10.5381 6.35854 10.4615 6.17871 10.4615 5.97238C10.4615 5.76588 10.5381 5.58604 10.6912 5.43288C10.8446 5.27971 11.0244 5.20312 11.2308 5.20312C11.4373 5.20312 11.6171 5.27971 11.7702 5.43288C11.9234 5.58604 12 5.76588 12 5.97238C12 6.17871 11.9234 6.35854 11.7702 6.51187C11.6171 6.66504 11.4373 6.74162 11.2308 6.74162ZM13.2308 9.74162C13.0244 9.74162 12.8446 9.66504 12.6912 9.51187C12.5381 9.35854 12.4615 9.17871 12.4615 8.97238C12.4615 8.76588 12.5381 8.58604 12.6912 8.43288C12.8446 8.27971 13.0244 8.20312 13.2308 8.20312C13.4373 8.20312 13.6171 8.27971 13.7703 8.43288C13.9234 8.58604 14 8.76588 14 8.97238C14 9.17871 13.9234 9.35854 13.7703 9.51187C13.6171 9.66504 13.4373 9.74162 13.2308 9.74162ZM14.2308 12.7416C14.0244 12.7416 13.8446 12.665 13.6913 12.5119C13.5381 12.3585 13.4615 12.1787 13.4615 11.9724C13.4615 11.7659 13.5381 11.586 13.6913 11.4329C13.8446 11.2797 14.0244 11.2031 14.2308 11.2031C14.4373 11.2031 14.6171 11.2797 14.7703 11.4329C14.9234 11.586 15 11.7659 15 11.9724C15 12.1787 14.9234 12.3585 14.7703 12.5119C14.6171 12.665 14.4373 12.7416 14.2308 12.7416ZM14.2308 6.74162C14.0244 6.74162 13.8446 6.66504 13.6913 6.51187C13.5381 6.35854 13.4615 6.17871 13.4615 5.97238C13.4615 5.76588 13.5381 5.58604 13.6913 5.43288C13.8446 5.27971 14.0244 5.20312 14.2308 5.20312C14.4373 5.20312 14.6171 5.27971 14.7703 5.43288C14.9234 5.58604 15 5.76588 15 5.97238C15 6.17871 14.9234 6.35854 14.7703 6.51187C14.6171 6.66504 14.4373 6.74162 14.2308 6.74162ZM16.2308 9.74162C16.0244 9.74162 15.8446 9.66504 15.6913 9.51187C15.5381 9.35854 15.4615 9.17871 15.4615 8.97238C15.4615 8.76588 15.5381 8.58604 15.6913 8.43288C15.8446 8.27971 16.0244 8.20312 16.2308 8.20312C16.4373 8.20312 16.6171 8.27971 16.7703 8.43288C16.9234 8.58604 17 8.76588 17 8.97238C17 9.17871 16.9234 9.35854 16.7703 9.51187C16.6171 9.66504 16.4373 9.74162 16.2308 9.74162ZM17.2308 12.7416C17.0244 12.7416 16.8446 12.665 16.6913 12.5119C16.5381 12.3585 16.4615 12.1787 16.4615 11.9724C16.4615 11.7659 16.5381 11.586 16.6913 11.4329C16.8446 11.2797 17.0244 11.2031 17.2308 11.2031C17.4373 11.2031 17.6171 11.2797 17.7703 11.4329C17.9234 11.586 18 11.7659 18 11.9724C18 12.1787 17.9234 12.3585 17.7703 12.5119C17.6171 12.665 17.4373 12.7416 17.2308 12.7416ZM17.2308 6.74162C17.0244 6.74162 16.8446 6.66504 16.6913 6.51187C16.5381 6.35854 16.4615 6.17871 16.4615 5.97238C16.4615 5.76588 16.5381 5.58604 16.6913 5.43288C16.8446 5.27971 17.0244 5.20312 17.2308 5.20312C17.4373 5.20312 17.6171 5.27971 17.7703 5.43288C17.9234 5.58604 18 5.76588 18 5.97238C18 6.17871 17.9234 6.35854 17.7703 6.51187C17.6171 6.66504 17.4373 6.74162 17.2308 6.74162ZM19.2308 9.74162C19.0244 9.74162 18.8446 9.66504 18.6913 9.51187C18.5381 9.35854 18.4615 9.17871 18.4615 8.97238C18.4615 8.76588 18.5381 8.58604 18.6913 8.43288C18.8446 8.27971 19.0244 8.20312 19.2308 8.20312C19.4373 8.20312 19.6171 8.27971 19.7703 8.43288C19.9234 8.58604 20 8.76588 20 8.97238C20 9.17871 19.9234 9.35854 19.7703 9.51187C19.6171 9.66504 19.4373 9.74162 19.2308 9.74162ZM20.2307 12.7416C20.0244 12.7416 19.8446 12.665 19.6913 12.5119C19.5381 12.3585 19.4615 12.1787 19.4615 11.9724C19.4615 11.7659 19.5381 11.586 19.6913 11.4329C19.8446 11.2797 20.0244 11.2031 20.2307 11.2031C20.4372 11.2031 20.6171 11.2797 20.7703 11.4329C20.9234 11.586 21 11.7659 21 11.9724C21 12.1787 20.9234 12.3585 20.7703 12.5119C20.6171 12.665 20.4372 12.7416 20.2307 12.7416ZM20.2307 6.74162C20.0244 6.74162 19.8446 6.66504 19.6913 6.51187C19.5381 6.35854 19.4615 6.17871 19.4615 5.97238C19.4615 5.76588 19.5381 5.58604 19.6913 5.43288C19.8446 5.27971 20.0244 5.20312 20.2307 5.20312C20.4372 5.20312 20.6171 5.27971 20.7703 5.43288C20.9234 5.58604 21 5.76588 21 5.97238C21 6.17871 20.9234 6.35854 20.7703 6.51187C20.6171 6.66504 20.4372 6.74162 20.2307 6.74162ZM18.9307 20.2031C17.2449 20.2031 15.5167 19.781 13.7462 18.9369C11.9757 18.0925 10.3308 16.9075 8.8115 15.3819C7.29233 13.8564 6.11058 12.2115 5.26625 10.4474C4.42208 8.68321 4 6.95821 4 5.27238C4 4.96688 4.1 4.71229 4.3 4.50862C4.5 4.30496 4.75 4.20312 5.05 4.20312H7.523C7.79483 4.20312 8.032 4.28871 8.2345 4.45988C8.43717 4.63104 8.57442 4.85062 8.64625 5.11862L9.14225 7.50312C9.18842 7.78262 9.18008 8.02688 9.11725 8.23588C9.05442 8.44488 8.9435 8.61604 8.7845 8.74937L6.5905 10.7954C7.00067 11.5402 7.45417 12.2322 7.951 12.8714C8.44783 13.5105 8.97767 14.116 9.5405 14.6876C10.1212 15.2685 10.7462 15.8085 11.4155 16.3079C12.0847 16.8072 12.8193 17.2787 13.6193 17.7224L15.7578 15.5454C15.9206 15.3697 16.1036 15.254 16.3068 15.1984C16.5099 15.1425 16.7346 15.1313 16.9808 15.1646L19.0845 15.5954C19.3563 15.662 19.5769 15.799 19.7462 16.0061C19.9154 16.2131 20 16.4506 20 16.7186V19.1531C20 19.4531 19.8982 19.7031 19.6945 19.9031C19.4908 20.1031 19.2362 20.2031 18.9307 20.2031ZM6.12125 9.85688L8.0405 8.09162C8.1045 8.04029 8.14617 7.96979 8.1655 7.88013C8.18467 7.79029 8.18142 7.70696 8.15575 7.63013L7.7115 5.51087C7.68583 5.40821 7.641 5.33129 7.577 5.28013C7.51283 5.22879 7.4295 5.20312 7.327 5.20312H5.275C5.198 5.20312 5.13392 5.22879 5.08275 5.28013C5.03142 5.33129 5.00575 5.39538 5.00575 5.47238C5.02492 6.15571 5.132 6.86913 5.327 7.61263C5.52183 8.35629 5.78658 9.10438 6.12125 9.85688ZM14.5712 18.1916C15.2467 18.5263 15.9669 18.7737 16.7318 18.9339C17.4964 19.0942 18.1628 19.1801 18.7308 19.1916C18.8077 19.1916 18.8718 19.166 18.923 19.1146C18.9743 19.0633 19 18.9992 19 18.9224V16.9146C19 16.8121 18.9743 16.7288 18.923 16.6646C18.8718 16.6006 18.7949 16.5558 18.6923 16.5301L16.8422 16.1511C16.7654 16.1255 16.6982 16.1223 16.6405 16.1416C16.5827 16.1608 16.5218 16.2025 16.4578 16.2666L14.5712 18.1916Z" fill="white"/>
</g>
</svg>
