<svg width="43" height="49" viewBox="0 0 43 49" fill="none" xmlns="http://www.w3.org/2000/svg">
<path d="M29.5426 20.8661C30.3424 20.0744 30.8388 18.977 30.8388 17.7655C30.8388 15.3591 28.8806 13.4014 26.4738 13.4014C24.6191 13.4014 22.9753 14.5771 22.3615 16.2999C22.1043 16.2525 21.8396 16.2264 21.5688 16.2264C21.2979 16.2264 21.0333 16.2525 20.776 16.2999C20.1622 14.577 18.5183 13.4014 16.6637 13.4014C14.2569 13.4014 12.2987 15.3591 12.2987 17.7655C12.2987 18.977 12.7952 20.0744 13.595 20.8661C11.6765 21.9589 10.4414 24.0284 10.4414 26.279C10.4414 26.6674 10.7562 26.9822 11.1445 26.9822C11.5329 26.9822 11.8477 26.6674 11.8477 26.279C11.8477 24.2912 13.0922 22.4862 14.9472 21.7783C15.738 22.1179 16.6119 22.2148 17.4579 22.0566C17.6785 22.6723 18.0343 23.2307 18.4992 23.6908C17.5411 24.2329 16.7443 25.0198 16.1904 25.971C15.6365 26.9223 15.3453 28.0036 15.3466 29.1044C15.3466 29.4928 15.6614 29.8075 16.0498 29.8075C16.4381 29.8075 16.7529 29.4928 16.7529 29.1044C16.7518 28.1573 17.0303 27.2309 17.5536 26.4414C18.0769 25.6519 18.8216 25.0345 19.6944 24.6666C19.7422 24.6464 19.7864 24.6212 19.8271 24.5924C20.3763 24.8326 20.9693 24.9564 21.5688 24.956C22.1781 24.956 22.7584 24.8301 23.2857 24.6036C25.1398 25.3115 26.3846 27.1185 26.3846 29.1044C26.3846 29.4928 26.6994 29.8075 27.0878 29.8075C27.4761 29.8075 27.7909 29.4928 27.7909 29.1044C27.7909 26.8558 26.5555 24.7847 24.6376 23.6914C25.1028 23.2313 25.4589 22.6726 25.6796 22.0566C26.5256 22.2148 27.3995 22.118 28.1903 21.7783C30.0452 22.4862 31.2897 24.2911 31.2897 26.279C31.2897 26.6674 31.6046 26.9822 31.9929 26.9822C32.3812 26.9822 32.696 26.6674 32.696 26.279C32.6962 24.0283 31.4611 21.9589 29.5426 20.8661ZM17.2041 20.5913C17.2041 20.6189 17.2057 20.6461 17.2062 20.6736C17.0291 20.7066 16.8477 20.7242 16.6638 20.7242C15.0324 20.7242 13.705 19.397 13.705 17.7655C13.705 16.1346 15.0324 14.8076 16.6638 14.8076C17.9225 14.8076 19.0375 15.6063 19.4524 16.7757C18.1127 17.5218 17.2041 18.9521 17.2041 20.5913ZM18.6104 20.5913C18.6104 18.96 19.9375 17.6328 21.5688 17.6328C23.2002 17.6328 24.5273 18.9599 24.5273 20.5913C24.5273 22.2226 23.2002 23.5498 21.5688 23.5498C19.9375 23.5498 18.6104 22.2225 18.6104 20.5913ZM25.9314 20.6736C25.9319 20.6461 25.9335 20.6188 25.9335 20.5913C25.9335 18.9521 25.0249 17.5219 23.6852 16.7758C24.1001 15.6064 25.2151 14.8077 26.4738 14.8077C28.1052 14.8077 29.4325 16.1346 29.4325 17.7655C29.4325 19.397 28.1052 20.7243 26.4738 20.7243C26.2918 20.7241 26.1103 20.7071 25.9314 20.6736Z" fill="#5FBA8D"/>
<path d="M39.7786 31.2093V18.4286C41.5312 18.0978 42.8614 16.5562 42.8614 14.7088C42.8614 12.621 41.1629 10.9225 39.0751 10.9225C37.9277 10.9225 36.8986 11.4363 36.2037 12.245L25.1423 5.85823C25.2836 5.45634 25.3557 5.0334 25.3556 4.60741C25.3556 2.51977 23.6571 0.821289 21.5694 0.821289C19.4817 0.821289 17.7831 2.51977 17.7831 4.6075C17.7831 5.04578 17.8588 5.46644 17.9964 5.85832L6.93504 12.245C6.24016 11.4363 5.21106 10.9225 4.06365 10.9225C1.97582 10.9225 0.277344 12.621 0.277344 14.7088C0.277344 16.5562 1.60748 18.0977 3.36014 18.4286V31.2093C1.60748 31.5401 0.277344 33.0817 0.277344 34.9291C0.277344 37.0169 1.97582 38.7154 4.06365 38.7154C5.20928 38.7154 6.23688 38.2032 6.93176 37.3968L17.9963 43.7846C17.8551 44.1864 17.783 44.6092 17.7831 45.0351C17.7831 47.1229 19.4816 48.8214 21.5694 48.8214C23.6572 48.8214 25.3557 47.1229 25.3557 45.0351C25.3557 44.597 25.2801 44.1763 25.1425 43.7846L36.2071 37.3968C36.9019 38.2033 37.9295 38.7154 39.0752 38.7154C41.163 38.7154 42.8615 37.0169 42.8615 34.9291C42.8614 33.0816 41.5311 31.5401 39.7786 31.2093ZM39.0751 12.3288C40.3874 12.3288 41.4551 13.3965 41.4551 14.7088C41.4551 16.0212 40.3874 17.0889 39.0751 17.0889C37.7628 17.0889 36.695 16.0212 36.695 14.7088C36.695 13.3965 37.7628 12.3288 39.0751 12.3288ZM21.5694 2.22755C22.8817 2.22755 23.9495 3.29518 23.9495 4.6075C23.9495 5.9186 22.8837 6.98548 21.5731 6.98745L21.5694 6.98726L21.5658 6.98745C20.2551 6.98548 19.1894 5.9186 19.1894 4.6075C19.1894 3.29518 20.257 2.22755 21.5694 2.22755ZM1.6836 14.7088C1.6836 13.3965 2.75133 12.3288 4.06365 12.3288C5.37597 12.3288 6.44369 13.3965 6.44369 14.7088C6.44369 16.0212 5.37597 17.0889 4.06365 17.0889C2.75133 17.0889 1.6836 16.0212 1.6836 14.7088ZM4.06365 37.309C2.75133 37.309 1.6836 36.2413 1.6836 34.929C1.6836 33.6166 2.75133 32.5489 4.06365 32.5489C5.37597 32.5489 6.44369 33.6166 6.44369 34.929C6.44369 36.2413 5.37597 37.309 4.06365 37.309ZM21.5694 47.415C20.2571 47.415 19.1894 46.3473 19.1894 45.035C19.1894 43.7227 20.2571 42.6549 21.5694 42.6549C22.8817 42.6549 23.9495 43.7227 23.9495 45.035C23.9495 46.3473 22.8817 47.415 21.5694 47.415ZM24.4377 42.5677C23.8886 41.9302 23.1316 41.4773 22.2724 41.3153V38.6064C22.2724 38.218 21.9576 37.9033 21.5693 37.9033C21.181 37.9033 20.8662 38.218 20.8662 38.6064V41.3153C20.0071 41.4773 19.2501 41.9302 18.7009 42.5677L7.63657 36.1799C7.77788 35.778 7.85 35.3551 7.84986 34.9291C7.84986 34.4904 7.77401 34.0693 7.6362 33.6771L9.98278 32.3219C10.1416 32.2274 10.2569 32.074 10.3035 31.8951C10.3501 31.7162 10.3244 31.5261 10.232 31.366C10.1395 31.2059 9.98772 31.0887 9.80945 31.0397C9.63118 30.9906 9.44078 31.0138 9.27946 31.1041L6.93082 32.4605C6.38172 31.8236 5.62497 31.3711 4.76631 31.2092V18.4287C5.62525 18.2668 6.38219 17.814 6.93129 17.1768L9.28312 18.535C9.36306 18.5812 9.45133 18.6112 9.54288 18.6233C9.63443 18.6354 9.72746 18.6293 9.81666 18.6054C9.90586 18.5815 9.98947 18.5403 10.0627 18.484C10.136 18.4278 10.1974 18.3577 10.2436 18.2777C10.2898 18.1978 10.3198 18.1095 10.3318 18.0179C10.3439 17.9264 10.3378 17.8334 10.3139 17.7442C10.29 17.655 10.2488 17.5714 10.1926 17.4981C10.1364 17.4248 10.0663 17.3633 9.98634 17.3172L7.63629 15.96C7.77763 15.558 7.84978 15.135 7.84967 14.7088C7.8498 14.2845 7.77823 13.8633 7.63798 13.4628L18.7009 7.07511C19.25 7.71242 20.007 8.16524 20.8659 8.32724V11.0364C20.8659 11.4248 21.1807 11.7395 21.569 11.7395C21.9573 11.7395 22.2722 11.4248 22.2722 11.0364V8.32724C23.1311 8.16524 23.888 7.71242 24.4371 7.07511L35.5001 13.4628C35.3599 13.8633 35.2883 14.2845 35.2884 14.7088C35.2884 15.1472 35.3641 15.5681 35.5018 15.96L33.1517 17.3172C32.9902 17.4104 32.8724 17.564 32.8241 17.7441C32.7759 17.9243 32.8012 18.1162 32.8944 18.2777C32.9877 18.4392 33.1413 18.557 33.3214 18.6053C33.5015 18.6535 33.6935 18.6282 33.8549 18.535L36.2068 17.1768C36.756 17.814 37.5129 18.2668 38.3718 18.4287V31.2092C37.5131 31.3711 36.7564 31.8236 36.2072 32.4605L33.8586 31.1041C33.7786 31.0579 33.6904 31.028 33.5988 31.0159C33.5073 31.0038 33.4142 31.0099 33.325 31.0338C33.2358 31.0577 33.1522 31.0989 33.079 31.1551C33.0057 31.2113 32.9442 31.2814 32.898 31.3614C32.8519 31.4413 32.8219 31.5296 32.8098 31.6212C32.7977 31.7127 32.8038 31.8057 32.8277 31.8949C32.8516 31.9841 32.8928 32.0678 32.949 32.141C33.0052 32.2143 33.0753 32.2758 33.1553 32.3219L35.5019 33.6771C35.3603 34.0793 35.2881 34.5027 35.2882 34.9291C35.2882 35.3673 35.3639 35.7881 35.5015 36.1799L24.4377 42.5677ZM39.0751 37.309C37.7628 37.309 36.695 36.2413 36.695 34.929C36.695 33.6166 37.7628 32.5489 39.0751 32.5489C40.3874 32.5489 41.4551 33.6166 41.4551 34.929C41.4551 36.2413 40.3874 37.309 39.0751 37.309Z" fill="#0E758F"/>
<path d="M27.4582 32.0859H25.3657C24.9773 32.0859 24.6625 32.4007 24.6625 32.7891C24.6625 33.1775 24.9773 33.4922 25.3657 33.4922H27.4582C27.8465 33.4922 28.1613 33.1775 28.1613 32.7891C28.1613 32.4007 27.8465 32.0859 27.4582 32.0859ZM27.4582 34.8398H15.6797C15.2914 34.8398 14.9766 35.1546 14.9766 35.543C14.9766 35.9314 15.2914 36.2461 15.6797 36.2461H27.4583C27.5506 36.2461 27.642 36.2279 27.7273 36.1926C27.8126 36.1572 27.8901 36.1054 27.9554 36.0401C28.0207 35.9748 28.0725 35.8973 28.1078 35.812C28.1432 35.7267 28.1613 35.6353 28.1613 35.5429C28.1613 35.4506 28.1431 35.3592 28.1078 35.2739C28.0724 35.1885 28.0207 35.111 27.9554 35.0458C27.8901 34.9805 27.8125 34.9287 27.7272 34.8933C27.6419 34.858 27.5505 34.8398 27.4582 34.8398ZM15.6797 33.4922H15.6894C16.0778 33.4922 16.3926 33.1775 16.3926 32.7891C16.3926 32.4007 16.0778 32.0859 15.6894 32.0859H15.6797C15.2914 32.0859 14.9766 32.4007 14.9766 32.7891C14.9766 33.1775 15.2914 33.4922 15.6797 33.4922ZM18.1249 33.4922C18.5132 33.4922 18.828 33.1775 18.828 32.7891C18.828 32.4007 18.5132 32.0859 18.1249 32.0859H18.1151C17.7268 32.0859 17.412 32.4007 17.412 32.7891C17.412 33.1775 17.7268 33.4922 18.1151 33.4922H18.1249ZM20.5603 33.4922C20.9486 33.4922 21.2634 33.1775 21.2634 32.7891C21.2634 32.4007 20.9486 32.0859 20.5603 32.0859H20.5506C20.1623 32.0859 19.8474 32.4007 19.8474 32.7891C19.8474 33.1775 20.1623 33.4922 20.5506 33.4922H20.5603Z" fill="#5FBA8D"/>
</svg>
